<svg xmlns="http://www.w3.org/2000/svg" width="9.44" height="9.565" viewBox="0 0 9.44 9.565"><defs><style>.a{fill:#15d828;}</style></defs><g transform="translate(0 0)"><path class="a" d="M8.815,3.414H6.073V.636A.629.629,0,0,0,5.449,0H3.991a.629.629,0,0,0-.625.633V3.414H.625A.629.629,0,0,0,0,4.047V5.524a.629.629,0,0,0,.625.633H3.366V8.935a.629.629,0,0,0,.625.633H5.449a.629.629,0,0,0,.625-.633V6.157H8.815a.629.629,0,0,0,.625-.633V4.047A.629.629,0,0,0,8.815,3.414Z" transform="translate(0 -0.003)"/></g></svg>