<svg xmlns="http://www.w3.org/2000/svg" width="23.499" height="31.262" viewBox="0 0 23.499 31.262"><defs><style>.a{fill:#75c7fe;}.b,.e{fill:#284055;}.c{fill:#ff6464;}.d,.e{stroke:none;}</style></defs><g transform="translate(-521.001 -1272)"><path class="a" d="M16625.428,1289.371l4.23,1.486h4.684l6.629-1.486h1.83l.686,4-4.344,1.029-3.656,2.171-1.943,1.486-3.885-2.629-3.316-2.057h-2.971Z" transform="translate(-16101 -3)"/><g transform="translate(457.432 1272.001)"><path class="b" d="M87.052,20.592a16.6,16.6,0,0,0-2.38-7.313A14.356,14.356,0,0,1,84.2,1.243a.916.916,0,0,0-1.71-.656A16.412,16.412,0,0,0,82.7,13.438c-4.141,1.893-11.16,1.885-14.789.071A16.392,16.392,0,0,0,68.148.587a.916.916,0,0,0-1.71.656,14.344,14.344,0,0,1-.473,12.036,16.431,16.431,0,0,0-2.38,7.313,17.513,17.513,0,0,0,2.652,10.249.916.916,0,0,0,1.541-.99A15.406,15.406,0,0,1,65.61,19.209c4.435.685,7.943,4.5,8.782,5.489v5.631a.916.916,0,0,0,1.832,0V24.7c.84-.988,4.349-4.815,8.8-5.491a15.407,15.407,0,0,1-2.168,10.646.916.916,0,0,0,1.541.99A17.514,17.514,0,0,0,87.052,20.592ZM75.308,22.965c-1.432-1.562-4.858-4.793-9.244-5.537a15.314,15.314,0,0,1,.972-2.309c4.347,2.205,12.111,2.012,16.532-.067a15.348,15.348,0,0,1,1.005,2.373C80.178,18.162,76.743,21.4,75.308,22.965Z" transform="translate(0 0)"/><ellipse class="b" cx="0.916" cy="0.915" rx="0.916" ry="0.915" transform="translate(74.392 9.22)"/></g><g transform="translate(528.283 1290.631)"><g class="c" transform="translate(0 -4.921)"><path class="d" d="M 3.124631643295288 13.54225540161133 C 3.033161640167236 13.54226493835449 2.941171646118164 13.52559566497803 2.851201772689819 13.49272537231445 L 2.367241621017456 13.31626510620117 C 1.952121734619141 13.16520500183105 1.731241703033447 12.70221519470215 1.875141739845276 12.28429508209229 C 1.950372338294983 12.06495475769043 2.115064859390259 11.8936014175415 2.321244239807129 11.80426502227783 L 2.324727296829224 11.77279472351074 C 2.165841341018677 11.67132663726807 2.015480995178223 11.55673217773438 1.874844193458557 11.4298677444458 C 1.826739072799683 11.60692024230957 1.71550178527832 11.76714611053467 1.549921751022339 11.87602519989014 C 1.423911690711975 11.95888519287109 1.277381658554077 12.00267505645752 1.126161694526672 12.002685546875 C 0.8683416843414307 12.00269508361816 0.6262617111206055 11.87588500976563 0.4786016941070557 11.66346549987793 L 0.3270617127418518 11.44520568847656 C 0.09015169739723206 11.10455513000488 0.1572017073631287 10.63824558258057 0.4799416959285736 10.38393497467041 C 0.6169416904449463 10.27602481842041 0.7879816889762878 10.21664524078369 0.9616516828536987 10.21664524078369 C 0.978093683719635 10.21664524078369 0.9944937825202942 10.21717643737793 1.01081645488739 10.21822547912598 C 0.9414213299751282 10.05462646484375 0.8851625323295593 9.88641357421875 0.8422526717185974 9.714300155639648 C 0.8387401700019836 9.717901229858398 0.8352012038230896 9.721461296081543 0.831611692905426 9.725005149841309 C 0.6848517060279846 9.870805740356445 0.488511711359024 9.951704978942871 0.2798717021942139 9.951704978942871 C 0.07018169760704041 9.951704978942871 -0.1265683025121689 9.869635581970215 -0.2741582989692688 9.72060489654541 C -0.4216682910919189 9.571645736694336 -0.501788318157196 9.374215126037598 -0.4997583031654358 9.164685249328613 L -0.4954183101654053 8.681755065917969 C -0.4917582869529724 8.250335693359375 -0.1406883001327515 7.899135112762451 0.2871817052364349 7.899135112762451 C 0.2939817011356354 7.899135112762451 0.300801694393158 7.899225234985352 0.3076417148113251 7.899415493011475 C 0.5046930909156799 7.904569625854492 0.6842276453971863 7.984209537506104 0.8193985223770142 8.110633850097656 L 0.828150749206543 8.10858154296875 C 0.8665666580200195 7.941583156585693 0.9173480868339539 7.778402328491211 0.9802415370941162 7.619713306427002 C 0.8439927697181702 7.600107669830322 0.7145751714706421 7.543009281158447 0.6077417135238647 7.454115390777588 C 0.300251692533493 7.197705268859863 0.2505716979503632 6.744835376739502 0.4942516982555389 6.422775268554688 L 0.7040817141532898 6.145455360412598 C 0.845061719417572 5.959595203399658 1.067921757698059 5.848915100097656 1.300601720809937 5.848915100097656 C 1.464191675186157 5.848915100097656 1.619861721992493 5.901085376739502 1.750771641731262 5.999775409698486 C 1.843061566352844 6.069477558135986 1.914828896522522 6.157473564147949 1.96457850933075 6.255352973937988 C 2.02892279624939 6.201286315917969 2.095303773880005 6.149554252624512 2.163603544235229 6.100260734558105 C 1.96711003780365 6.016678333282471 1.810296893119812 5.85188627243042 1.73997175693512 5.639685153961182 C 1.61195170879364 5.254135131835938 1.812001705169678 4.836515426635742 2.195491790771484 4.689195156097412 L 2.686131715774536 4.500495433807373 C 2.773731708526611 4.466835498809814 2.865441799163818 4.449795246124268 2.958831787109375 4.449795246124268 C 3.27862811088562 4.449795246124268 3.562002420425415 4.648682594299316 3.671786069869995 4.947329044342041 C 3.794238567352295 4.636452198028564 4.099446296691895 4.420955181121826 4.450501918792725 4.420955181121826 C 4.485141754150391 4.420955181121826 4.5201416015625 4.423155307769775 4.554511547088623 4.427475452423096 L 4.730121612548828 4.449515342712402 C 5.180601596832275 4.506235122680664 5.507381916046143 4.915675163269043 5.458761692047119 5.362245082855225 C 5.4468674659729 5.470551490783691 5.413661956787109 5.573394775390625 5.363243103027344 5.666041374206543 C 5.425330638885498 5.689096450805664 5.486740112304688 5.713962078094482 5.547390460968018 5.740604877471924 C 5.546113014221191 5.730862617492676 5.545026302337646 5.721096515655518 5.544131755828857 5.71128511428833 C 5.525371551513672 5.505475521087646 5.59270191192627 5.298065185546875 5.728861808776855 5.14222526550293 C 5.871471881866455 4.97859525680542 6.079441547393799 4.884485244750977 6.299051761627197 4.884485244750977 C 6.472731590270996 4.884485244750977 6.643251895904541 4.944035053253174 6.779171466827393 5.052155494689941 L 7.190611839294434 5.378805160522461 C 7.352231502532959 5.506835460662842 7.455991744995117 5.698555469512939 7.474851608276367 5.904455184936523 C 7.493721485137939 6.110425472259521 7.4263916015625 6.317995071411133 7.290131568908691 6.473925113677979 C 7.172443389892578 6.608752250671387 7.010600090026855 6.69627046585083 6.834496974945068 6.722915172576904 C 6.864924907684326 6.760439872741699 6.89452075958252 6.798553943634033 6.923310279846191 6.837288379669189 C 7.015417098999023 6.738787174224854 7.131425380706787 6.664519786834717 7.263611793518066 6.62120532989502 C 7.344551563262939 6.594645500183105 7.428911685943604 6.581135272979736 7.51414155960083 6.581135272979736 C 7.853541851043701 6.581135272979736 8.161821365356445 6.796505451202393 8.281271934509277 7.117045402526855 L 8.373931884765625 7.365495204925537 C 8.526301383972168 7.775155067443848 8.335371971130371 8.230565071105957 7.939411640167236 8.402705192565918 C 7.83601188659668 8.447605133056641 7.726931571960449 8.470335006713867 7.615001678466797 8.470345497131348 C 7.601415634155273 8.470345497131348 7.587888717651367 8.470000267028809 7.57438850402832 8.46931266784668 C 7.58213996887207 8.533769607543945 7.588070869445801 8.598492622375488 7.592172622680664 8.663371086120605 C 7.71618127822876 8.576793670654297 7.866298675537109 8.526665687561035 8.025832176208496 8.526665687561035 C 8.07478141784668 8.526665687561035 8.124021530151367 8.531445503234863 8.172191619873047 8.540895462036133 C 8.583441734313965 8.621865272521973 8.852171897888184 9.021855354309082 8.771661758422852 9.432605743408203 L 8.668891906738281 9.956005096435547 C 8.599211692810059 10.31138515472412 8.285801887512207 10.56941509246826 7.923711776733398 10.56941509246826 C 7.913713932037354 10.56941509246826 7.903717517852783 10.56921672821045 7.893722534179688 10.56881999969482 C 8.074883460998535 10.84878730773926 8.071372032165527 11.22479057312012 7.857371807098389 11.50487518310547 L 7.770171642303467 11.61874485015869 C 7.615461826324463 11.82114505767822 7.371031761169434 11.94219493865967 7.116581916809082 11.94220542907715 C 6.952221870422363 11.94221496582031 6.794051647186279 11.8930549621582 6.659171581268311 11.80004501342773 C 6.543239116668701 11.72020149230957 6.453175067901611 11.61333656311035 6.393288612365723 11.49235343933105 C 6.334642887115479 11.54235553741455 6.274399757385254 11.5903205871582 6.212604999542236 11.63621234893799 C 6.410360813140869 11.71737384796143 6.569794178009033 11.88032817840576 6.642781734466553 12.09080505371094 C 6.775901794433594 12.47512531280518 6.581291675567627 12.89526557922363 6.19979190826416 13.04746532440186 L 5.712011814117432 13.24271488189697 C 5.62166166305542 13.2788553237915 5.526791572570801 13.29715538024902 5.429901599884033 13.29715538024902 C 5.106461524963379 13.29717540740967 4.817891597747803 13.09166526794434 4.711821556091309 12.78578567504883 C 4.651161670684814 12.61069202423096 4.658589839935303 12.42808246612549 4.720772743225098 12.26674556732178 C 4.538800716400146 12.29623222351074 4.35452938079834 12.31108570098877 4.169841766357422 12.31108570098877 C 4.044337272644043 12.31108570098877 3.918643236160278 12.30417728424072 3.79376220703125 12.29046249389648 L 3.770376205444336 12.32715320587158 C 3.826760053634644 12.43872356414795 3.857941627502441 12.56376457214355 3.857941627502441 12.69365501403809 C 3.857941627502441 12.75955009460449 3.850030422210693 12.82475090026855 3.834359645843506 12.88839530944824 C 3.795603513717651 13.2666482925415 3.503455400466919 13.54221820831299 3.124631643295288 13.54225540161133 Z"/><path class="e" d="M 3.124580144882202 13.0422534942627 C 3.248787879943848 13.04224109649658 3.33873176574707 12.94915580749512 3.33873176574707 12.80207538604736 C 3.351761817932129 12.76632499694824 3.357941627502441 12.72974491119385 3.357941627502441 12.69365501403809 C 3.357941627502441 12.56468486785889 3.278421640396118 12.44356536865234 3.150121688842773 12.39679527282715 L 3.13625168800354 12.39178562164307 L 3.530341625213623 11.7734956741333 C 3.53956151008606 11.75910949707031 3.555431365966797 11.7507963180542 3.572096347808838 11.7507963180542 C 3.575368642807007 11.7507963180542 3.578672647476196 11.75111675262451 3.581961631774902 11.75177574157715 C 3.77191162109375 11.79053497314453 3.968371629714966 11.81108570098877 4.169841766357422 11.81108570098877 C 4.424441814422607 11.81108570098877 4.671351909637451 11.77833557128906 4.906741619110107 11.71736526489258 C 4.910965442657471 11.71626472473145 4.91523265838623 11.71572971343994 4.919450283050537 11.71572971343994 C 4.935085296630859 11.71572971343994 4.950023651123047 11.72308349609375 4.959371566772461 11.73623561859131 L 5.353291511535645 12.28820514678955 L 5.340091705322266 12.29338550567627 C 5.210291862487793 12.34533500671387 5.13845157623291 12.48984527587891 5.184231758117676 12.62198543548584 C 5.221888542175293 12.7305850982666 5.322904109954834 12.79716205596924 5.429883003234863 12.79715728759766 C 5.461966514587402 12.79715633392334 5.494596481323242 12.79116630554199 5.526201725006104 12.77852535247803 L 6.014511585235596 12.58306503295898 C 6.144321918487549 12.53127574920654 6.216151714324951 12.3867654800415 6.170381546020508 12.25462532043457 C 6.132725238800049 12.14603233337402 6.031708717346191 12.07945919036865 5.924654483795166 12.07945919036865 C 5.892548084259033 12.07945919036865 5.859883785247803 12.08545207977295 5.82824182510376 12.09809494018555 L 5.732681751251221 12.13634490966797 L 5.622261524200439 11.46276569366455 C 5.618911743164063 11.44255542755127 5.62844181060791 11.42250537872314 5.646151542663574 11.41214561462402 C 5.903751850128174 11.26145553588867 6.136301517486572 11.07267570495605 6.336101531982422 10.8533353805542 C 6.345673561096191 10.84274578094482 6.359036922454834 10.83701801300049 6.372720718383789 10.83701801300049 C 6.379336833953857 10.83701801300049 6.386029720306396 10.83835792541504 6.392401695251465 10.84113502502441 L 6.823911666870117 11.03074550628662 C 6.780811786651611 11.15888500213623 6.823911666870117 11.30639553070068 6.943021774291992 11.38842487335205 C 6.995925426483154 11.42490673065186 7.056366443634033 11.44220733642578 7.116558074951172 11.44220447540283 C 7.213751792907715 11.44220066070557 7.310273170471191 11.39708137512207 7.373201847076416 11.3147554397583 L 7.460071563720703 11.20131492614746 C 7.564991474151611 11.06399536132813 7.538931846618652 10.86769485473633 7.401771545410156 10.76278495788574 C 7.345141887664795 10.71935558319092 7.278311729431152 10.69846534729004 7.212161540985107 10.69846534729004 C 7.133641719818115 10.69846534729004 7.055961608886719 10.72787570953369 6.996481895446777 10.78450489044189 L 6.696951866149902 10.42866516113281 C 6.683421611785889 10.41263484954834 6.681741714477539 10.38974571228027 6.692441463470459 10.37170505523682 C 6.7978515625 10.1936149597168 6.884891510009766 10.00316524505615 6.951041698455811 9.803365707397461 C 6.957391738891602 9.783815383911133 6.975101470947266 9.770285606384277 6.995481491088867 9.769454956054688 L 7.672741889953613 9.738545417785645 L 7.669901847839355 9.752574920654297 C 7.643001556396484 9.889735221862793 7.725361824035645 10.02856540679932 7.861181735992432 10.06180572509766 C 7.882175445556641 10.06695652008057 7.903119087219238 10.06941509246826 7.92371129989624 10.06941318511963 C 8.045352935791016 10.06940269470215 8.153973579406738 9.983535766601563 8.178261756896973 9.859664916992188 L 8.281002044677734 9.336435317993164 C 8.308571815490723 9.195775032043457 8.216851234436035 9.059285163879395 8.076022148132324 9.03155517578125 C 8.059168815612793 9.028251647949219 8.042389869689941 9.02666187286377 8.025836944580078 9.02666187286377 C 7.904230117797852 9.02666187286377 7.795549392700195 9.112578392028809 7.771141529083252 9.23653507232666 L 7.751421928405762 9.337605476379395 L 7.12529182434082 9.064135551452637 C 7.106581687927246 9.05594539642334 7.095051765441895 9.037065505981445 7.09589147567749 9.016515731811523 C 7.098061561584473 8.971915245056152 7.099061489105225 8.926975250244141 7.099061489105225 8.881705284118652 C 7.099061489105225 8.611064910888672 7.06231164932251 8.349115371704102 6.99364185333252 8.100205421447754 C 6.987961769104004 8.079814910888672 6.995821475982666 8.05810546875 7.013361930847168 8.046235084533691 L 7.347311496734619 7.819705486297607 C 7.404471397399902 7.91400146484375 7.50695276260376 7.970348358154297 7.614969253540039 7.970341205596924 C 7.656600952148438 7.970338344573975 7.699071884155273 7.96196460723877 7.74006175994873 7.944165229797363 C 7.89376163482666 7.877345085144043 7.963921546936035 7.697415351867676 7.905451774597168 7.540215492248535 L 7.812741756439209 7.291635513305664 C 7.765159606933594 7.163942813873291 7.643624305725098 7.081136226654053 7.514142036437988 7.081136226654053 C 7.48268985748291 7.081136226654053 7.450753211975098 7.086026191711426 7.4193115234375 7.0963454246521 C 7.250581741333008 7.15163516998291 7.162881851196289 7.334565162658691 7.222011566162109 7.499625205993652 L 6.819571495056152 7.555925369262695 C 6.81732702255249 7.55623197555542 6.815088272094727 7.556381702423096 6.812868118286133 7.556381702423096 C 6.794596195220947 7.556381702423096 6.777591705322266 7.546226501464844 6.768951892852783 7.529695510864258 C 6.635641574859619 7.273755073547363 6.465571880340576 7.039875507354736 6.265771865844727 6.835225105285645 C 6.251401901245117 6.820525169372559 6.247391700744629 6.798645496368408 6.256081581115723 6.780095100402832 L 6.53991174697876 6.163815498352051 L 6.551111698150635 6.172675132751465 C 6.600545883178711 6.211921691894531 6.660528659820557 6.231526851654053 6.719935417175293 6.231522083282471 C 6.792022705078125 6.231515884399414 6.863251686096191 6.202635288238525 6.91362190246582 6.144935131072998 C 7.011861801147461 6.032505512237549 6.995481491088867 5.862105369567871 6.879711627960205 5.770395278930664 L 6.467911720275879 5.443455219268799 C 6.418470859527588 5.404126644134521 6.358467102050781 5.384482383728027 6.299050331115723 5.384482383728027 C 6.226968288421631 5.384482383728027 6.15575647354126 5.413408756256104 6.105391502380371 5.471195220947266 C 6.007161617279053 5.583625316619873 6.023531913757324 5.753855228424072 6.139301776885986 5.8457350730896 L 6.219831466674805 5.909715175628662 L 5.689751625061035 6.339895248413086 C 5.6808180809021 6.347230434417725 5.669926166534424 6.350914478302002 5.65892219543457 6.350914478302002 C 5.650378227233887 6.350914478302002 5.641766548156738 6.348693370819092 5.633951663970947 6.344235420227051 C 5.37835168838501 6.196395397186279 5.098191738128662 6.085965156555176 4.801161766052246 6.020645141601563 C 4.780451774597168 6.016135215759277 4.764911651611328 5.999095439910889 4.762571811676025 5.978215217590332 L 4.718131542205811 5.590305328369141 C 4.845771789550781 5.55689525604248 4.946341514587402 5.447965145111084 4.9617018699646 5.308135509490967 C 4.98125171661377 5.128555297851563 4.846941471099854 4.968175411224365 4.66785192489624 4.945625305175781 L 4.492101669311523 4.92356538772583 C 4.478158473968506 4.921811103820801 4.464285850524902 4.920958042144775 4.450500011444092 4.920958042144775 C 4.285737991333008 4.920958042144775 4.136937618255615 5.043098449707031 4.117051601409912 5.209745407104492 C 4.09818172454834 5.369115352630615 4.196911811828613 5.515295505523682 4.345091819763184 5.561735153198242 L 4.217121601104736 5.919575214385986 C 4.210111618041992 5.939455509185791 4.191231727600098 5.952315330505371 4.170181751251221 5.952315330505371 L 4.169841766357422 5.952315330505371 C 3.928781747817993 5.952315330505371 3.694731712341309 5.981385231018066 3.470531702041626 6.036345481872559 C 3.466579675674438 6.037309646606445 3.462595224380493 6.037778377532959 3.458655118942261 6.037778377532959 C 3.442774534225464 6.037778377532959 3.427617788314819 6.030159473419189 3.418251752853394 6.016635417938232 L 3.032001733779907 5.459665298461914 L 3.045201778411865 5.454655170440674 C 3.175841808319092 5.404365062713623 3.249521732330322 5.260865211486816 3.205411672592163 5.128215312957764 C 3.168920278549194 5.017955780029297 3.067107200622559 4.949797630310059 2.958830833435059 4.949797630310059 C 2.927827835083008 4.949797630310059 2.896291971206665 4.955386638641357 2.865611791610718 4.967175483703613 L 2.374791622161865 5.155945301055908 C 2.244321584701538 5.20606517791748 2.17048168182373 5.349575519561768 2.214581727981567 5.482385158538818 C 2.251092433929443 5.592546939849854 2.35305380821228 5.660788536071777 2.461329698562622 5.660783290863037 C 2.492288827896118 5.660781860351563 2.523775100708008 5.655200958251953 2.554381608963013 5.643425464630127 L 2.650611639022827 5.606345176696777 L 2.752011775970459 6.281425476074219 C 2.755021810531616 6.301635265350342 2.745161771774292 6.321525096893311 2.727461814880371 6.331715106964111 C 2.457151651382446 6.484905242919922 2.213751792907715 6.679695129394531 2.005931615829468 6.907565116882324 C 1.996213674545288 6.918074607849121 1.982830405235291 6.92376708984375 1.969191193580627 6.92376708984375 C 1.962662100791931 6.92376708984375 1.956072330474854 6.92246150970459 1.949801683425903 6.919755458831787 L 1.509431719779968 6.729315280914307 C 1.577921748161316 6.621395111083984 1.553531646728516 6.477385520935059 1.449791669845581 6.399035453796387 C 1.405021667480469 6.365285396575928 1.352561712265015 6.348915100097656 1.300601720809937 6.348915100097656 C 1.225591659545898 6.348915100097656 1.151591658592224 6.382835388183594 1.102811694145203 6.447145462036133 L 0.8929817080497742 6.724465370178223 C 0.8124616742134094 6.830885410308838 0.8249917030334473 6.984245300292969 0.9275617003440857 7.069775104522705 C 0.974210798740387 7.108592510223389 1.030420660972595 7.127307415008545 1.086142778396606 7.127306461334229 C 1.16112232208252 7.127305030822754 1.235214352607727 7.093415260314941 1.283901691436768 7.029015064239502 L 1.311301708221436 6.992935180664063 L 1.626201748847961 7.362795352935791 C 1.639731645584106 7.378835201263428 1.641571760177612 7.401385307312012 1.631211757659912 7.419435501098633 C 1.445281744003296 7.741525173187256 1.318811655044556 8.102205276489258 1.267021656036377 8.486445426940918 C 1.264351725578308 8.50682544708252 1.249481678009033 8.523355484008789 1.22944164276123 8.528035163879395 L 0.5690516829490662 8.682905197143555 C 0.5698916912078857 8.529205322265625 0.447601705789566 8.403244972229004 0.294411689043045 8.399235725402832 C 0.2919931709766388 8.399170875549316 0.2895833551883698 8.399139404296875 0.2871779501438141 8.399139404296875 C 0.1325716227293015 8.399139404296875 0.005881172139197588 8.53062629699707 0.004561700858175755 8.686244964599609 L 0.0002217007422586903 9.16954517364502 C -0.001288299215957522 9.324905395507813 0.1245117038488388 9.451704978942871 0.2798717021942139 9.451704978942871 C 0.3580617010593414 9.451704978942871 0.4288916885852814 9.420295715332031 0.4803417026996613 9.369185447692871 C 0.5319616794586182 9.318224906921387 0.5640416741371155 9.247565269470215 0.5647116899490356 9.16954517364502 L 0.5653817057609558 9.091525077819824 L 1.230611681938171 9.245224952697754 C 1.250491738319397 9.249734878540039 1.26535165309906 9.266275405883789 1.268191695213318 9.286655426025391 C 1.318481683731079 9.650005340576172 1.435421705245972 9.992145538330078 1.606321692466736 10.30019569396973 C 1.616511702537537 10.31840515136719 1.614171743392944 10.34113502502441 1.600311756134033 10.35683536529541 L 1.184001684188843 10.82727527618408 C 1.129548192024231 10.75522613525391 1.046276092529297 10.71664428710938 0.9616490602493286 10.71664428710938 C 0.9016501903533936 10.71664428710938 0.8409683108329773 10.73604106903076 0.7894017100334167 10.77665519714355 C 0.672801673412323 10.86853504180908 0.6530817151069641 11.03826522827148 0.7377817034721375 11.16005516052246 L 0.8891416788101196 11.37806510925293 C 0.9446814656257629 11.45795726776123 1.034966349601746 11.50268459320068 1.126142501831055 11.50268077850342 C 1.177575469017029 11.50267791748047 1.229300141334534 11.48844242095947 1.275211691856384 11.45825481414795 C 1.397161722183228 11.37806510925293 1.434751749038696 11.21969509124756 1.367931723594666 11.09473514556885 L 1.95898175239563 10.85232543945313 C 1.964993000030518 10.8498477935791 1.971283197402954 10.84865188598633 1.977522850036621 10.84865188598633 C 1.991056799888611 10.84865188598633 2.004342079162598 10.85428524017334 2.013951778411865 10.86469554901123 C 2.245661735534668 11.116455078125 2.520801782608032 11.3274450302124 2.827521800994873 11.48581504821777 C 2.845731735229492 11.49534511566162 2.856431722640991 11.51471519470215 2.854091644287109 11.53510570526123 L 2.773901700973511 12.25963497161865 L 2.762711763381958 12.25562572479248 C 2.726240634918213 12.24233436584473 2.688611507415771 12.2360200881958 2.651446342468262 12.2360200881958 C 2.519044876098633 12.2360200881958 2.392775535583496 12.31624031066895 2.347901582717896 12.44707489013672 C 2.291931629180908 12.6096248626709 2.376461744308472 12.7875452041626 2.538511753082275 12.84651565551758 L 3.022821664810181 13.02309513092041 C 3.058388233184814 13.03609275817871 3.092608213424683 13.04225635528564 3.124580144882202 13.0422534942627 M 3.124661684036255 14.04225540161133 L 3.124581813812256 14.04225540161133 C 2.97439169883728 14.04225540161133 2.824661731719971 14.01536560058594 2.679551601409912 13.96233558654785 L 2.195971727371216 13.78601551055908 C 1.645963668823242 13.58586692810059 1.307360768318176 13.04600048065186 1.332774043083191 12.48590850830078 C 1.264931917190552 12.49702262878418 1.195935010910034 12.50267124176025 1.126331686973572 12.502685546875 C 0.7046816945075989 12.502685546875 0.3091416954994202 12.29565525054932 0.0680617019534111 11.94888496398926 L -0.08364830166101456 11.73035526275635 C -0.3707655370235443 11.31752586364746 -0.3839762210845947 10.79103851318359 -0.1558618545532227 10.37600898742676 C -0.3321258127689362 10.31235313415527 -0.4934912323951721 10.20969772338867 -0.6294183135032654 10.07243537902832 C -0.8715683221817017 9.827935218811035 -1.00307834148407 9.503825187683105 -0.9997283220291138 9.159825325012207 L -0.9953982830047607 8.677265167236328 C -0.9903475642204285 8.082207679748535 -0.5790980458259583 7.580557346343994 -0.02891583368182182 7.439020156860352 C -0.2355447262525558 7.025661945343018 -0.2020137459039688 6.514334201812744 0.0955217033624649 6.121085166931152 L 0.3053616881370544 5.843765258789063 C 0.5206560492515564 5.559920787811279 0.8502019643783569 5.381219387054443 1.202016949653625 5.352884292602539 C 1.221071243286133 4.862647533416748 1.528685569763184 4.409727096557617 2.016191720962524 4.222455501556396 L 2.506641626358032 4.033825397491455 C 2.651821613311768 3.97803521156311 2.803871631622314 3.949795246124268 2.958831787109375 3.949795246124268 C 3.220065832138062 3.949795246124268 3.466662645339966 4.029828071594238 3.671379089355469 4.170205593109131 C 3.891688823699951 4.012818336486816 4.161365985870361 3.920955181121826 4.450501918792725 3.920955181121826 C 4.505801677703857 3.920955181121826 4.561701774597168 3.924455404281616 4.616661548614502 3.931355237960815 L 4.792391777038574 3.953415393829346 C 5.183753967285156 4.002691268920898 5.5165696144104 4.219228267669678 5.726251125335693 4.521724224090576 C 5.90126371383667 4.432568073272705 6.097273349761963 4.384485244750977 6.299051761627197 4.384485244750977 C 6.585351467132568 4.384485244750977 6.866411685943604 4.482645511627197 7.090461730957031 4.66087532043457 L 7.501501560211182 4.987215518951416 C 7.769411563873291 5.199445247650146 7.941491603851318 5.517385482788086 7.972771644592285 5.858845233917236 C 7.982056140899658 5.960216045379639 7.978754043579102 6.061822891235352 7.963616371154785 6.16133975982666 C 8.319510459899902 6.29210376739502 8.612525939941406 6.574059009552002 8.749801635742188 6.942465305328369 L 8.842411994934082 7.190765380859375 C 8.979364395141602 7.558981418609619 8.943289756774902 7.950381755828857 8.773223876953125 8.27263355255127 C 9.152645111083984 8.553230285644531 9.358847618103027 9.036346435546875 9.262331962585449 9.528775215148926 L 9.15952205657959 10.05234527587891 C 9.085179328918457 10.43147277832031 8.843483924865723 10.74378967285156 8.520585060119629 10.91831016540527 C 8.542559623718262 11.22667026519775 8.456707000732422 11.54401874542236 8.254681587219238 11.80843544006348 L 8.16715145111084 11.92274570465088 C 7.931716442108154 12.23074531555176 7.566498279571533 12.42150402069092 7.180629730224609 12.44061756134033 C 7.142617225646973 12.90449047088623 6.84696102142334 13.32759857177734 6.385071754455566 13.51187515258789 L 5.897811889648438 13.7069149017334 C 5.747961521148682 13.76683521270752 5.590631484985352 13.79715538024902 5.429881572723389 13.79715538024902 C 4.949710369110107 13.79720020294189 4.51585865020752 13.52406311035156 4.304177284240723 13.10290050506592 C 4.175753116607666 13.64830207824707 3.703524351119995 14.04221248626709 3.124661684036255 14.04225540161133 Z"/></g></g></g></svg>