<svg xmlns="http://www.w3.org/2000/svg" width="20.595" height="24.65" viewBox="0 0 20.595 24.65"><defs><style>.a{fill:#75c7fe;stroke-width:1.3px;}.a,.c{stroke:#284055;}.b,.c{fill:#ff6464;}.d{stroke:none;}.e{fill:none;}</style></defs><g transform="translate(-16023 -1088.85)"><path class="a" d="M4.3,36.48V33.115a2.866,2.866,0,0,0-1.047-2.205A8.964,8.964,0,0,1,1.167,19.583a10.9,10.9,0,0,1,2.719-2.96A8.953,8.953,0,0,1,16.5,19.193l.519.929a8.923,8.923,0,0,1,.884,3.886,16.527,16.527,0,0,1-.167,1.73l1.318,2.333a1,1,0,0,1-.49,1.414l-1.6.654v2.675A1.688,1.688,0,0,1,15.279,34.5h-2.2v1.979a.856.856,0,0,1-.855.856H5.151A.856.856,0,0,1,4.3,36.48Zm0,0" transform="translate(16023.757 1074.446)"/><g transform="translate(16023 1107.107)"><path class="b" d="M37.543,323.556l-.594-1.088-.684.684a.4.4,0,0,1-.634-.089l-.886-1.594a.4.4,0,0,1,.7-.389l.628,1.13.687-.687a.4.4,0,0,1,.635.091l.85,1.558a.4.4,0,0,1-.7.384Z" transform="translate(-34.695 -320.874)"/><path class="b" d="M56.78,413.663a.274.274,0,0,1,.107-.373l.412-.229-.23-.23a.274.274,0,0,1,.063-.435l.714-.389a.274.274,0,0,1,.263.482l-.392.214.228.228a.274.274,0,0,1-.061.434l-.73.406A.274.274,0,0,1,56.78,413.663Z" transform="translate(-54.189 -407.41)"/><path class="b" d="M354.2,404.6,353.132,404a.4.4,0,0,1-.089-.634l.333-.333-.573-.312a.4.4,0,0,1,.384-.7l1.043.569a.4.4,0,0,1,.092.635l-.336.336.6.335a.4.4,0,0,1-.389.7Z" transform="translate(-337.223 -398.668)"/></g><g class="c" transform="translate(16031.111 1108.247)"><circle class="d" cx="2.5" cy="2.5" r="2.5"/><circle class="e" cx="2.5" cy="2.5" r="2"/></g></g></svg>