<svg xmlns="http://www.w3.org/2000/svg" width="22.563" height="26.7" viewBox="0 0 22.563 26.7"><defs><style>.a{fill:#ff6464;}.b{fill:#75c7fe;}.c{fill:#284055;}</style></defs><g transform="translate(-38 -1114)"><path class="a" d="M16157.713,1133.9c-.278.032-1.041,1-1.041,1s-.324,1.671-.417,2.042,0,2.877,0,2.877a13.021,13.021,0,0,0,.836,1.949,8.439,8.439,0,0,0,1.16.464l1.438-.464a1.635,1.635,0,0,0,.6-1.068c.048-.65-.048-2.646,0-2.97a9.092,9.092,0,0,0,0-1.949,2.109,2.109,0,0,0-.6-1.285A8.684,8.684,0,0,0,16157.713,1133.9Z" transform="translate(-16101 -3)"/><path class="b" d="M0,0H9V7H0Z" transform="translate(43 1128)"/><g transform="translate(-1.666 1114)"><path class="c" d="M113.334,264.813h10.795V256H113.334Zm1.564-7.249h7.666v5.684H114.9Z" transform="translate(-69.826 -242.65)"/><path class="c" d="M59.009,15.61a3.212,3.212,0,0,0-.865.119V14.207a8.378,8.378,0,0,0-2.1-5.547L54.956,7.423V5.449h1.326V0H41.528V5.449h1.326V7.423L41.763,8.66a8.379,8.379,0,0,0-2.1,5.547V26.7H59.009a3.224,3.224,0,0,0,3.22-3.22V18.83A3.224,3.224,0,0,0,59.009,15.61Zm1.656,3.22v1.543H57.353V18.83a1.656,1.656,0,1,1,3.311,0ZM54.717,3.884H52.994V1.564h1.723Zm-8.337,0V1.564h1.743v2.32Zm3.307-2.32H51.43v2.32H49.687Zm-6.594,0h1.723v2.32H43.093Zm10.3,3.884V7.405H44.419V5.449ZM41.23,14.207a6.815,6.815,0,0,1,1.706-4.512l.64-.725H54.234l.64.725a6.815,6.815,0,0,1,1.706,4.512V16.72a3.206,3.206,0,0,0-.791,2.11v4.65a3.2,3.2,0,0,0,.459,1.656H41.23ZM59.009,25.135a1.658,1.658,0,0,1-1.656-1.656V21.937h3.311V23.48A1.658,1.658,0,0,1,59.009,25.135Z"/></g></g></svg>