<svg xmlns="http://www.w3.org/2000/svg" width="35.79" height="25.331" viewBox="0 0 35.79 25.331"><defs><style>.a{fill:#75c7fe;}.b{fill:none;stroke:#284055;stroke-linecap:round;stroke-width:1.3px;}.c{fill:#284055;}</style></defs><g transform="translate(-61.245 -1199.12)"><path class="a" d="M16169.329,1211.925h21.926a17.919,17.919,0,0,1-3.238,4.761,8.043,8.043,0,0,1-4.039,1.95l-1.1,2.21v4.225h-5.338v-5l-1.369-1.43-4.8-2.092Z" transform="translate(-16101.002 -2.232)"/><g transform="translate(61.896 1199.768)"><path class="b" d="M16348.474,1313.889a4.682,4.682,0,0,1,1.1,2.492,2.351,2.351,0,0,1-1.1,2.368,4.822,4.822,0,0,1-2.717.685l-1.107-2.119a10.008,10.008,0,0,0-3.828-3.156c-2.264-.919-2.818-1.44-5.9-1.388a13.855,13.855,0,0,0-5.334.681,8.944,8.944,0,0,0-3.426,1.807,15.8,15.8,0,0,0-1.928,2.056,9.639,9.639,0,0,0-1.176,2.119,6.335,6.335,0,0,1-2.135-.685c-.873-.53-1.018-.654-1.359-1.433a2.536,2.536,0,0,1,0-2.056,2.8,2.8,0,0,1,.973-1.371" transform="translate(-16317.267 -1312.768)"/><g transform="translate(0 1.11)"><path class="b" d="M16369.6,1315.143a12.012,12.012,0,0,1,.521,2.917,4.431,4.431,0,0,1-1.951,3.9,11.337,11.337,0,0,1-3.991,1.571l-1.085,2.828a7.169,7.169,0,0,1-2.037,2.244c-1.442,1.066-2.506.931-3.73,2.02a3.2,3.2,0,0,0-1.172,2.334l-.26,5.072" transform="translate(-16335.634 -1315.143)"/><path class="b" d="M16356.418,1315.143a11.992,11.992,0,0,0-.521,2.917,4.433,4.433,0,0,0,1.951,3.9,11.339,11.339,0,0,0,3.992,1.571l1.084,2.828a7.165,7.165,0,0,0,2.038,2.244c1.442,1.066,2.5.931,3.729,2.02a3.191,3.191,0,0,1,1.172,2.334l.262,5.072" transform="translate(-16355.896 -1315.143)"/></g></g><circle class="c" cx="0.5" cy="0.5" r="0.5" transform="translate(74.413 1211.388)"/><circle class="c" cx="0.5" cy="0.5" r="0.5" transform="translate(72.344 1212.423)"/><circle class="c" cx="1" cy="1" r="1" transform="translate(76.496 1214.515)"/><circle class="c" cx="1" cy="1" r="1" transform="translate(78.567 1211.406)"/><circle class="c" cx="1" cy="1" r="1" transform="translate(83.742 1211.406)"/><circle class="c" cx="0.5" cy="0.5" r="0.5" transform="translate(81.651 1213.457)"/></g></svg>