<svg xmlns="http://www.w3.org/2000/svg" width="31.953" height="34.092" viewBox="0 0 31.953 34.092"><defs><style>.a{fill:#b4f768;}.b{fill:#ff6464;}.c{fill:#284055;}.d{fill:none;stroke:#284055;stroke-linecap:round;stroke-width:1.2px;}</style></defs><g transform="translate(-39 -1025.908)"><path class="a" d="M16155.675,1036.9l-2.25-4.05a10.27,10.27,0,0,0-2.75-1.056,4.674,4.674,0,0,0-2.3.206,3.976,3.976,0,0,0,0,2.55,11.938,11.938,0,0,0,1.65,3.5,19.188,19.188,0,0,0,2.9.75,2.045,2.045,0,0,0,1.3-.4A8.11,8.11,0,0,0,16155.675,1036.9Z" transform="translate(-16101 -3)"/><path class="b" d="M16166.972,1043.141l1.757.961s.551,1.153.605,1.291.549,1.675.549,1.675-1.429.549-1.538.632-.741.632-.741.632l-1.84.769-1.017.357-1.263-2.389-.138-1.84,1.125-1.593a10.655,10.655,0,0,1,1.154-.714C16165.735,1042.921,16166.972,1043.141,16166.972,1043.141Z" transform="translate(-16101 -3)"/><g transform="translate(-45.858 99.433)"><path class="c" d="M83.458,20.623h-5.4a1.893,1.893,0,0,0-1.891,1.891v1.512a1.893,1.893,0,0,0,1.186,1.754l1.873,9.709a.63.63,0,0,0,.619.511H90.373a.63.63,0,0,0,.619-.511l1.872-9.7a1.893,1.893,0,0,0,1.2-1.761V22.513a1.893,1.893,0,0,0-1.891-1.891H86.2l.016-.022C87.024,19.475,82.723,19.614,83.458,20.623Zm6.394,14.116H80.369l-1.216-6.3h3a.63.63,0,1,0,0-1.26H78.91l-.243-1.26H91.555Zm2.954-12.226v1.512a.631.631,0,0,1-.63.63H78.061a.631.631,0,0,1-.63-.63V22.513a.631.631,0,0,1,.63-.63H92.177A.631.631,0,0,1,92.807,22.513Z" transform="translate(8.688 924.568)"/><path class="c" d="M234.908,373.229a.615.615,0,1,0-.434-.18A.619.619,0,0,0,234.908,373.229Z" transform="translate(-141.76 579.562)"/><path class="d" d="M.271,11.921a8.976,8.976,0,0,1,3.11-9.2C8.121-1.265,12.728.305,12.728.305" transform="matrix(0.921, 0.391, -0.391, 0.921, 98.015, 934.654)"/><path class="c" d="M4.718,8.03a4.05,4.05,0,0,0,3.37-3.986V.674A.674.674,0,0,0,7.04.113L5.478,1.155,4.52.2a.674.674,0,0,0-.953,0l-.957.957L1.048.113A.674.674,0,0,0,0,.674v3.37A4.05,4.05,0,0,0,3.37,8.03C2.971,9.6,5.116,9.6,4.718,8.03ZM1.348,4.044V1.933l.974.649a.674.674,0,0,0,.85-.084l.871-.871.871.871a.674.674,0,0,0,.85.084l.974-.649v2.11a2.7,2.7,0,1,1-5.392,0Z" transform="matrix(-0.899, 0.438, -0.438, -0.899, 116.812, 945.653)"/><g transform="translate(90.255 931.25) rotate(-42)"><g transform="translate(0 0)"><g transform="translate(0 0)"><path class="c" d="M3.984.122a.772.772,0,0,0-.829,0A6.9,6.9,0,0,0,0,5.6a4.617,4.617,0,0,0,3.094,4.5,1.413,1.413,0,0,0,.947,0l.036-.012v-1.1h0a2.53,2.53,0,0,1-.326.139L3.7,9.13l-.044.018a1.232,1.232,0,0,1-.163.01l-.055-.024-.057-.017a2.525,2.525,0,0,1-.326-.139,3.875,3.875,0,0,1-.841-.561,3.54,3.54,0,0,1-1.2-2.82A5.171,5.171,0,0,1,2.352,2.182a6.828,6.828,0,0,1,.943-.91c.1-.078.19-.146.272-.2.083.057.175.126.275.205a6.815,6.815,0,0,1,.942.909A5.17,5.17,0,0,1,6.116,5.6,3.565,3.565,0,0,1,5.1,8.249V9.562A4.555,4.555,0,0,0,7.135,5.6,6.9,6.9,0,0,0,3.984.122Z"/></g></g><g transform="translate(3.058 6.105)"><g transform="translate(0 0)"><rect class="c" width="1.019" height="6.116"/></g></g></g></g></g></svg>