<svg xmlns="http://www.w3.org/2000/svg" width="23.99" height="24" viewBox="0 0 23.99 24"><defs><style>.a{fill:#ff6464;}.b{fill:#284055;}</style></defs><g transform="translate(-69.001 -1282.6)"><path class="a" d="M17725.354,1296.983l4.213,1.667,3.545.467,3.678-.467,4.078-1.667,1.471,3.267-5.146,2.733-2.008,3.267-.67,2.267h-3.008l-1.2-3.667-2.408-2.333-3.676-2.267h-1Z" transform="translate(-17651.998 -2.943)"/><circle class="b" cx="0.5" cy="0.5" r="0.5" transform="translate(82.138 1300.043)"/><circle class="b" cx="0.5" cy="0.5" r="0.5" transform="translate(79.131 1299.041)"/><circle class="b" cx="0.5" cy="0.5" r="0.5" transform="translate(79.131 1299.041)"/><circle class="b" cx="0.5" cy="0.5" r="0.5" transform="translate(81.136 1301.046)"/><circle class="b" cx="0.5" cy="0.5" r="0.5" transform="translate(79.131 1301.046)"/><circle class="b" cx="0.5" cy="0.5" r="0.5" transform="translate(80.133 1303.057)"/><g transform="translate(69.001 1282.6)"><path class="b" d="M22.221,13.208A16.011,16.011,0,0,1,20.652,9.83c-1.307-4.284.846-8.774.867-8.818A.7.7,0,0,0,20.888,0H3.322a.7.7,0,0,0-.631,1.013c.022.045,2.18,4.518.867,8.818A16.014,16.014,0,0,1,1.99,13.208c-1.368,2.4-2.661,4.673-1.3,10.255A.7.7,0,0,0,1.369,24H22.842a.7.7,0,0,0,.683-.537c1.357-5.582.064-7.852-1.3-10.255Zm-2.386-11.8a14.331,14.331,0,0,0-.528,8.835q.033.108.067.212a13.416,13.416,0,0,1-7.269,2.122,13.416,13.416,0,0,1-7.269-2.122q.034-.1.067-.212a14.331,14.331,0,0,0-.528-8.835ZM4.321,11.789a14.815,14.815,0,0,0,7.784,2.192,14.815,14.815,0,0,0,7.784-2.192c.347.775.732,1.452,1.11,2.114.118.207.234.411.347.615a9.848,9.848,0,0,0-8.122,8.076H10.985a9.848,9.848,0,0,0-8.122-8.076c.113-.2.229-.409.347-.615.377-.663.763-1.34,1.11-2.114ZM2.2,15.847a8.443,8.443,0,0,1,7.355,6.748H1.927c-.716-3.259-.4-5.157.275-6.748Zm20.081,6.748h-7.63a8.443,8.443,0,0,1,7.355-6.748C22.685,17.437,23,19.336,22.283,22.595Z" transform="translate(-0.11 0)"/><path class="b" d="M241.846,185.745a.7.7,0,0,0,.7-.7V183.88a.7.7,0,1,0-1.4,0v1.164A.7.7,0,0,0,241.846,185.745Z" transform="translate(-229.851 -174.595)"/></g></g></svg>