<svg xmlns="http://www.w3.org/2000/svg" width="29.297" height="29.297" viewBox="0 0 29.297 29.297"><defs><style>.a{fill:#ff6464;}.b{fill:#75c7fe;}.c{fill:#284055;}</style></defs><g transform="translate(-906 -975)"><circle class="a" cx="1.5" cy="1.5" r="1.5" transform="translate(906 1000)"/><circle class="a" cx="1.5" cy="1.5" r="1.5" transform="translate(911 1001)"/><circle class="a" cx="1.5" cy="1.5" r="1.5" transform="translate(932 1001)"/><circle class="a" cx="1.5" cy="1.5" r="1.5" transform="translate(927 1000)"/><g transform="translate(0 3)"><path class="b" d="M17022.426,980.9l-.625,6.128.9,5.7,1,3.8a3.625,3.625,0,0,1,0,4l-2.8,1.1-1.5-1.1-1.3-2.7,1.3-6,.6-4.8Z" transform="translate(-16101 -3)"/><g transform="translate(906 971.996)"><g transform="translate(0 0.004)"><path class="c" d="M1.831,426.663a1.831,1.831,0,1,0,1.831,1.831A1.833,1.833,0,0,0,1.831,426.663Zm0,2.441a.61.61,0,1,1,.61-.61A.611.611,0,0,1,1.831,429.1Z" transform="translate(0 -402.249)"/><path class="c" d="M195.662,26.859a3.651,3.651,0,0,0,2.5-6.322c-3.679-9.564,1.052-19.558,1.1-19.658a.61.61,0,0,0-1.046-.62C197.963.613,192,9.124,192,23.2A3.667,3.667,0,0,0,195.662,26.859Zm.3-19.251a25.133,25.133,0,0,0,1.117,13.511.61.61,0,0,0,.17.238,2.436,2.436,0,1,1-4.026,1.84A44.978,44.978,0,0,1,195.96,7.608Z" transform="translate(-181.014 -0.004)"/><path class="c" d="M27.466,385.217a.61.61,0,1,0,0-1.221H20.081a.61.61,0,0,0-.608.677l.026.194a2.526,2.526,0,0,1,.033.349,4.883,4.883,0,1,1-9.766,0,2.557,2.557,0,0,1,.032-.338l.024-.192a.667.667,0,0,0,0-.156A.61.61,0,0,0,9.213,384H.61a.61.61,0,1,0,0,1.221H8.545a6.1,6.1,0,1,0,12.207,0Z" transform="translate(0 -362.024)"/><path class="c" d="M449.831,448a1.831,1.831,0,1,0,1.831,1.831A1.833,1.833,0,0,0,449.831,448Zm0,2.441a.61.61,0,1,1,.61-.61A.611.611,0,0,1,449.831,450.437Z" transform="translate(-422.365 -422.362)"/><path class="c" d="M87.164,448A1.831,1.831,0,1,0,89,449.827,1.833,1.833,0,0,0,87.164,448Zm0,2.441a.61.61,0,1,1,.61-.61A.611.611,0,0,1,87.164,450.437Z" transform="translate(-80.45 -422.362)"/><path class="c" d="M364.5,426.663a1.831,1.831,0,1,0,1.831,1.831A1.833,1.833,0,0,0,364.5,426.663Zm0,2.441a.61.61,0,1,1,.61-.61A.611.611,0,0,1,364.5,429.1Z" transform="translate(-341.915 -402.249)"/></g></g></g></g></svg>