<svg xmlns="http://www.w3.org/2000/svg" width="24.002" height="24" viewBox="0 0 24.002 24"><defs><style>.a{fill:#ff6464;}.b{fill:#284055;}</style></defs><g transform="translate(-70.396 -757.363)"><path class="a" d="M18149.48,761.426v4.245l.795.886s1.555.812,1.627.923a13.033,13.033,0,0,0,1.012,1.255,10.2,10.2,0,0,1,1.012,1.55,13.5,13.5,0,0,1,.506,1.882c0,.332.506,2.325.506,2.842s.109,3.543,0,3.839.182,2.658,0,2.805-.65.849-1.012.96a12.384,12.384,0,0,1-1.771.591,2.784,2.784,0,0,1-1.408,0,22.614,22.614,0,0,1-3.65-1.181,37.34,37.34,0,0,1-3.361-3.433,21.772,21.772,0,0,1-1.734-3.1,16.756,16.756,0,0,1-.506-3.543,13.51,13.51,0,0,0,.326-1.44l-1.445-.221a11.087,11.087,0,0,1,.217-1.55c.107-.258,1.156-.849,1.229-1.033s-.109-6.164-.145-6.275l.65-.17.035-.162h1.373s-.18,3.765-.18,3.912a9.923,9.923,0,0,0,2.385.664c.109-.037.939-.369,1.012-.664a19.715,19.715,0,0,0,0-2.067c0-.332.145-1.513.145-1.513Z" transform="translate(-18068.848 -2.886)"/><g transform="translate(70.396 757.363)"><path class="b" d="M11.407,5.012V0H7.154V3.609a.707.707,0,0,1-.709.7H5.736V0H1.484V7.124H.019v4.218H1.484v.7A12,12,0,0,0,13.536,24l.219,0a3.423,3.423,0,0,0,3.321-3.431V13.452a9.175,9.175,0,0,0-5.67-8.44Zm4.253,15.555a2,2,0,0,1-1.929,2.025A10.593,10.593,0,0,1,2.9,12.046v-.7H5.028a.707.707,0,0,1,.709.7v2.109H7.154V12.046A2.12,2.12,0,0,0,5.028,9.937H1.437V8.531H2.9V1.406H4.319V8.531h.709a3.534,3.534,0,0,1,3.544,3.515v2.109H9.989V12.046A4.942,4.942,0,0,0,5.736,7.175V5.718h.709A2.12,2.12,0,0,0,8.571,3.609v-2.2H9.989V5.989l.471.166a7.771,7.771,0,0,1,5.2,7.3Z" transform="translate(-0.019)"/><path class="b" d="M387.591,128.525l1.767.824,1.807-2.459-1.111-.816-1.137,1.548-1.767-.824-1.807,2.459,1.111.817Z" transform="translate(-367.167 -120.141)"/><path class="b" d="M387.591,392.477l-1.137-1.548-1.111.816,1.807,2.459,1.767-.824,1.137,1.548,1.111-.816-1.807-2.459Z" transform="translate(-367.167 -372.496)"/><path class="b" d="M0,0H4.361V1.379H0Z" transform="matrix(0.949, -0.316, 0.316, 0.949, 19.428, 14.205)"/></g></g></svg>