<svg xmlns="http://www.w3.org/2000/svg" width="24" height="24" viewBox="0 0 24 24"><defs><style>.a{fill:#ff6464;}.b{fill:#75c7fe;}.c{fill:#284055;}</style></defs><g transform="translate(-864 -1354)"><circle class="a" cx="2" cy="2" r="2" transform="translate(882 1372)"/><path class="b" d="M18529.9,1368.065l3.291-1.123h2.348l.816,1.123v2.143l-3.164.612-1.939-.612-2.193-1.557Z" transform="translate(-17654.057 -4.486)"/><path class="b" d="M18535.8,1368.065l-3.291-1.123h-2.348l-.816,1.123v2.143l3.164.612,1.939-.612,2.254-1.6Z" transform="translate(-17664.145 -4.486)"/><g transform="translate(864 1354)"><path class="c" d="M20.293,10.089a3.026,3.026,0,0,0-3.086-2.954,7.421,7.421,0,0,0-1.621.231V4.747l1.354-1.3a.68.68,0,0,0,0-.992.756.756,0,0,0-1.036,0l-1.569,1.5a.686.686,0,0,0-.215.5V7.779c-.488.156-.976.329-1.44.5a2.487,2.487,0,0,0-.642-2.629h0l0,0A2.686,2.686,0,0,0,10.879,5V.7A.733.733,0,0,0,9.414.7V5a2.686,2.686,0,0,0-1.159.651h0a2.486,2.486,0,0,0-.642,2.629c-.464-.173-.952-.345-1.44-.5V4.456a.686.686,0,0,0-.215-.5l-1.569-1.5a.756.756,0,0,0-1.036,0,.68.68,0,0,0,0,.992l1.354,1.3V7.366a7.421,7.421,0,0,0-1.621-.231A3.026,3.026,0,0,0,0,10.089a3.026,3.026,0,0,0,3.086,2.954,14.161,14.161,0,0,0,4.05-.972,2.832,2.832,0,0,0-.075.646,10.377,10.377,0,0,0,.713,3.067L6.491,17.012a.686.686,0,0,0-.215.5v2.429l-1.354,1.3a.68.68,0,0,0,0,.992.756.756,0,0,0,1.036,0l1.569-1.5a.686.686,0,0,0,.215-.5V17.8l.591-.566c.526,1.272,1.04,2.318,1.153,2.546a.747.747,0,0,0,1.323,0c.113-.227.627-1.274,1.153-2.546l.591.566v2.429a.686.686,0,0,0,.215.5l1.569,1.5a.756.756,0,0,0,1.036,0,.68.68,0,0,0,0-.992l-1.354-1.3V17.508a.686.686,0,0,0-.215-.5L12.52,15.784a10.378,10.378,0,0,0,.713-3.067,2.831,2.831,0,0,0-.075-.646,14.161,14.161,0,0,0,4.05.972A3.026,3.026,0,0,0,20.293,10.089ZM9.284,6.649,9.3,6.637a1.248,1.248,0,0,1,1.7,0l.012.012A1.125,1.125,0,0,1,11,8.281l-.857.82-.856-.82a1.125,1.125,0,0,1-.006-1.633Zm-6.2,4.992a1.553,1.553,0,1,1,0-3.1,19.343,19.343,0,0,1,5.268,1.552A19.326,19.326,0,0,1,3.086,11.641Zm7.06,6.12a17.348,17.348,0,0,1-1.621-5.043,1.623,1.623,0,0,1,3.242,0A17.361,17.361,0,0,1,10.146,17.761Zm1.793-7.672a19.327,19.327,0,0,1,5.268-1.552,1.553,1.553,0,1,1,0,3.1A19.345,19.345,0,0,1,11.939,10.089Z" transform="translate(0 0)"/><path class="c" d="M360.477,358.07a.732.732,0,0,0,0-1.465h-.141a3.069,3.069,0,0,0-.361-.869l.627-.626a.732.732,0,1,0-1.035-1.036l-.627.627a3.069,3.069,0,0,0-.868-.36V354.2a.732.732,0,1,0-1.465,0v.141a3.067,3.067,0,0,0-.868.36l-.627-.627a.732.732,0,0,0-1.035,1.036l.627.626a3.071,3.071,0,0,0-.361.869H354.2a.732.732,0,0,0,0,1.465h.141a3.07,3.07,0,0,0,.361.869l-.627.626a.732.732,0,1,0,1.035,1.036l.627-.627a3.068,3.068,0,0,0,.868.36v.141a.732.732,0,0,0,1.465,0v-.141a3.065,3.065,0,0,0,.868-.36l.627.627a.732.732,0,1,0,1.035-1.036l-.627-.626a3.069,3.069,0,0,0,.361-.869Zm-3.138.889a1.621,1.621,0,1,1,1.621-1.621A1.623,1.623,0,0,1,357.339,358.958Z" transform="translate(-337.21 -337.208)"/></g></g></svg>