<svg xmlns="http://www.w3.org/2000/svg" width="22.093" height="25.163" viewBox="0 0 22.093 25.163"><defs><style>.a{fill:#75c7fe;stroke:#284055;stroke-width:1.3px;}.b{fill:#ff6464;stroke:#344b5f;}</style></defs><g transform="translate(-47.345 -833.737)"><path class="a" d="M14.983,36.616V33.229a2.884,2.884,0,0,1,1.054-2.219,9.021,9.021,0,0,0,2.095-11.4L14.19,20.927a.122.122,0,0,1-.118-.207l2.865-2.5L14.869,16.89l.526-.256A9.011,9.011,0,0,0,2.7,19.219l-.522.935a8.979,8.979,0,0,0-.89,3.911,16.631,16.631,0,0,0,.168,1.741L.131,28.153a1,1,0,0,0,.493,1.423l1.606.658v2.692a1.7,1.7,0,0,0,1.7,1.7H6.14v1.992A.861.861,0,0,0,7,37.478h7.122a.861.861,0,0,0,.861-.861Zm0,0" transform="translate(48 820.772)"/><path class="b" d="M316,6.01l-7.318,2.442a.114.114,0,0,1-.111-.194L311.7,5.526a.3.3,0,0,0-.032-.47L309.82,3.842a.5.5,0,0,1,.065-.871l6.431-2.96a.111.111,0,0,1,.135.168L314.114,3.29a.3.3,0,0,0,.062.417l1.961,1.425A.5.5,0,0,1,316,6.01Zm0,0" transform="translate(-247.553 834.25)"/></g></svg>