<svg xmlns="http://www.w3.org/2000/svg" width="23.2" height="25.72" viewBox="0 0 23.2 25.72"><defs><style>.a{fill:#ff6464;}.b{fill:#75c7fe;}.c{fill:#284055;}</style></defs><g transform="translate(-184 -1270)"><rect class="a" width="5" height="11" rx="2.5" transform="matrix(0.899, 0.438, -0.438, 0.899, 188.883, 1283.511)"/><rect class="b" width="12" height="10" transform="translate(194 1281)"/><g transform="translate(158.912 1270)"><g transform="translate(25.088)"><g transform="translate(0)"><path class="c" d="M45.652,6.116h-.087a.449.449,0,0,1-.434-.365l-.125-.66h.105a1.122,1.122,0,0,0,1.12-1.12V1.12A1.122,1.122,0,0,0,45.112,0H37.742a1.122,1.122,0,0,0-1.12,1.12V3.97a1.122,1.122,0,0,0,1.12,1.12h.06l-.119.644a.448.448,0,0,1-.44.366h0a2.674,2.674,0,0,0-2.674,2.674v7.918a3.78,3.78,0,0,0-7.244-.936L25.372,20.5a3.781,3.781,0,1,0,7,2.874l1.022-2.487h0l.928-2.258a3.776,3.776,0,0,0,.248-.919v5.3A2.677,2.677,0,0,0,37.24,25.69h8.375a2.677,2.677,0,0,0,2.674-2.674V8.79A2.685,2.685,0,0,0,45.652,6.116ZM30.973,22.8a2.274,2.274,0,1,1-4.206-1.728l.736-1.79,4.206,1.728Zm1.95-4.746-.641,1.561L28.075,17.89l.641-1.561a2.274,2.274,0,1,1,4.206,1.728Zm5.206-16.55h6.6V3.583h-6.6Zm8.652,21.508a1.168,1.168,0,0,1-1.166,1.166H37.24a1.168,1.168,0,0,1-1.166-1.166V21.569H46.781v1.447Zm0-2.955H36.073v-8.18H46.781v8.18Zm0-9.688H36.073v-1.6A1.166,1.166,0,0,1,37.24,7.608h0a1.955,1.955,0,0,0,1.922-1.6l.17-.919h4.138l.177.939a1.961,1.961,0,0,0,1.894,1.592h.087a1.171,1.171,0,0,1,1.15,1.166v1.584Z" transform="translate(-25.088)"/></g></g><g transform="translate(37.2 12.76)"><path class="c" d="M273.826,254.014h-6.894a.754.754,0,1,0,0,1.508h6.894a.754.754,0,1,0,0-1.508Z" transform="translate(-266.178 -254.014)"/></g><g transform="translate(37.2 15.253)"><path class="c" d="M273.827,303.63h-6.894a.754.754,0,1,0,0,1.508h6.894a.754.754,0,1,0,0-1.508Z" transform="translate(-266.179 -303.63)"/></g><g transform="translate(37.2 17.683)"><path class="c" d="M273.827,352.013h-6.894a.754.754,0,0,0,0,1.508h6.894a.754.754,0,0,0,0-1.508Z" transform="translate(-266.179 -352.013)"/></g></g></g></svg>