<svg xmlns="http://www.w3.org/2000/svg" width="28.426" height="27.286" viewBox="0 0 28.426 27.286"><defs><style>.a{fill:#d5f5fb;}.b{fill:#ff7480;}.c{fill:#75c7fe;}.d{fill:#fff;}.e{fill:#ff838e;}.f{fill:#284055;}</style></defs><g transform="translate(0 -10.262)"><g transform="translate(6.551 10.817)"><rect class="a" width="3.798" height="2.192" transform="translate(8.752 2.665)"/><path class="b" d="M251.18,22.927h4a1.332,1.332,0,0,0,1.332-1.332h0a1.332,1.332,0,0,0-1.332-1.332h-4a1.332,1.332,0,0,0-1.332,1.332h0A1.332,1.332,0,0,0,251.18,22.927Z" transform="translate(-242.528 -20.262)"/><circle class="c" cx="10.66" cy="10.66" r="10.66" transform="translate(0 4.857)"/><circle class="d" cx="8.058" cy="8.058" r="8.058" transform="translate(2.602 7.459)"/><circle class="e" cx="1.17" cy="1.17" r="1.17" transform="translate(9.49 14.346)"/></g><g transform="translate(0 10.262)"><path class="f" d="M28.371,25.218a11.206,11.206,0,0,0-8.714-9.826V13.981a1.888,1.888,0,0,0-.456-3.719h-4a1.888,1.888,0,0,0-.456,3.719V15.4A11.148,11.148,0,0,0,9.281,18.4a11.268,11.268,0,0,0-.943,1.07l-.042,0H4.34a.555.555,0,0,0,0,1.11H7.583A11.13,11.13,0,0,0,6.6,22.716H.555a.555.555,0,1,0,0,1.11H6.284a11.288,11.288,0,0,0-.276,2.134H3.553a.555.555,0,0,0,0,1.11H6.026A11.272,11.272,0,0,0,6.373,29.2h-3.6a.555.555,0,1,0,0,1.11H6.727A11.213,11.213,0,0,0,16.1,37.494q.55.054,1.1.054a11.242,11.242,0,0,0,6.12-1.809.555.555,0,0,0-.606-.931,10.1,10.1,0,1,1,2.976-2.98.555.555,0,1,0,.931.6A11.251,11.251,0,0,0,28.371,25.218ZM14.427,12.15a.778.778,0,0,1,.777-.777h4a.777.777,0,0,1,0,1.555h-4A.778.778,0,0,1,14.427,12.15Zm1.432,3.055V14.037h2.688V15.2A11.312,11.312,0,0,0,15.859,15.205Z" transform="translate(0 -10.262)"/><path class="f" d="M436.325,425.5a.555.555,0,1,0,.393.163A.558.558,0,0,0,436.325,425.5Z" transform="translate(-411.576 -402.446)"/><path class="f" d="M163.485,144.609a8.613,8.613,0,1,0,8.613,8.613A8.622,8.622,0,0,0,163.485,144.609Zm0,16.115a7.5,7.5,0,1,1,7.5-7.5A7.511,7.511,0,0,1,163.485,160.724Z" transform="translate(-146.274 -137.15)"/><path class="f" d="M263.489,219.574l-2.75,2.75a1.721,1.721,0,0,0-1.524,0l-1.231-1.231a.555.555,0,1,0-.785.785l1.231,1.231a1.725,1.725,0,1,0,3.095,0l2.669-2.669h0l.081-.081a.555.555,0,0,0-.785-.785Zm-3.512,4.912a.615.615,0,1,1,.615-.615A.616.616,0,0,1,259.977,224.486Z" transform="translate(-242.766 -207.799)"/><path class="f" d="M398.725,289.86h-.514a.555.555,0,0,0,0,1.11h.514a.555.555,0,0,0,0-1.11Z" transform="translate(-375.577 -274.337)"/><path class="f" d="M194.152,289.616h-.514a.555.555,0,0,0,0,1.11h.514a.555.555,0,0,0,0-1.11Z" transform="translate(-182.362 -274.106)"/><path class="f" d="M300.678,184.444a.555.555,0,0,0,.555-.555v-.514a.555.555,0,0,0-1.11,0v.514A.555.555,0,0,0,300.678,184.444Z" transform="translate(-283.46 -173.239)"/><path class="f" d="M300.434,387.393a.555.555,0,0,0-.555.555v.514a.555.555,0,0,0,1.11,0v-.514A.555.555,0,0,0,300.434,387.393Z" transform="translate(-283.23 -366.455)"/><path class="f" d="M.555,351.44a.555.555,0,1,0,.392.948.555.555,0,0,0-.392-.948Z" transform="translate(0 -332.498)"/></g></g></svg>