<svg xmlns="http://www.w3.org/2000/svg" width="31" height="24" viewBox="0 0 31 24"><defs><style>.a{fill:#41596f;}.b{fill:#ff6464;}</style></defs><g transform="translate(-75 -928)"><g transform="translate(75 928)"><path class="a" d="M30.092,0a.9.9,0,0,0-.908.9v4.62a13.521,13.521,0,0,1-4.008,9.6L19.84,20.415a6.172,6.172,0,0,1-8.679,0L5.824,15.12a13.521,13.521,0,0,1-4.008-9.6V.9A.908.908,0,0,0,0,.9v4.62A15.318,15.318,0,0,0,4.54,16.395l5.336,5.294a8,8,0,0,0,11.248,0l5.336-5.294A15.315,15.315,0,0,0,31,5.521V.9a.9.9,0,0,0-.908-.9Zm0,0" transform="translate(0 0)"/><path class="a" d="M96.75,17.687a4.792,4.792,0,0,0,5.974,0,.907.907,0,1,0-1.129-1.419,2.963,2.963,0,0,1-3.717,0,.907.907,0,1,0-1.128,1.419Zm0,0" transform="translate(-90.562 -15.095)"/><path class="a" d="M305.617,17.687a4.793,4.793,0,0,0,5.974,0,.907.907,0,1,0-1.129-1.419,2.963,2.963,0,0,1-3.717,0,.907.907,0,1,0-1.129,1.419Zm0,0" transform="translate(-286.778 -15.095)"/><path class="a" d="M161.575,209.465a.907.907,0,0,0,0,1.813h.669a1.623,1.623,0,0,0,1.138-.461l.019-.019a1.757,1.757,0,0,1,1.9-.389l.8.319a.907.907,0,0,0,.742-.031l.289-.145a2.075,2.075,0,0,1,2.181.2l0,0a2.658,2.658,0,0,0,1.583.527h.393a.907.907,0,0,0,0-1.813h-.393a.834.834,0,0,1-.494-.164l0,0a3.876,3.876,0,0,0-4.006-.406l-.42-.168a3.569,3.569,0,0,0-3.8.739Zm0,0" transform="translate(-150.93 -195.958)"/><path class="a" d="M220.215,257.218a1.715,1.715,0,0,1-1.908,0,.907.907,0,0,0-1.006,1.509,3.524,3.524,0,0,0,3.919,0,.907.907,0,0,0-1.006-1.509Zm0,0" transform="translate(-203.762 -241.634)"/></g><ellipse class="b" cx="4" cy="1.5" rx="4" ry="1.5" transform="translate(79 935.943)"/><ellipse class="b" cx="3.5" cy="1.5" rx="3.5" ry="1.5" transform="translate(94.042 935.943)"/></g></svg>