<svg xmlns="http://www.w3.org/2000/svg" width="30.756" height="24" viewBox="0 0 30.756 24"><defs><style>.a{fill:#ff6464;}.b{fill:#41596f;}</style></defs><g transform="translate(-909 -840)"><g transform="translate(913 848.018)"><rect class="a" width="1" height="2" rx="0.5"/><rect class="a" width="1" height="2" rx="0.5" transform="translate(3)"/><rect class="a" width="1" height="2" rx="0.5" transform="translate(5)"/><g transform="translate(17.001)"><rect class="a" width="1" height="2" rx="0.5"/><rect class="a" width="1" height="2" rx="0.5" transform="translate(2)"/><rect class="a" width="1" height="2" rx="0.5" transform="translate(4)"/></g></g><g transform="translate(909 840)"><path class="b" d="M29.855,0a.9.9,0,0,0-.9.9v4.62a13.574,13.574,0,0,1-3.976,9.6l-5.294,5.294a6.089,6.089,0,0,1-8.611,0L5.778,15.12A13.574,13.574,0,0,1,1.8,5.521V.9A.9.9,0,1,0,0,.9v4.62A15.378,15.378,0,0,0,4.5,16.395L9.8,21.689a7.891,7.891,0,0,0,11.159,0l5.294-5.294a15.377,15.377,0,0,0,4.5-10.874V.9a.9.9,0,0,0-.9-.9Zm0,0" transform="translate(0 0)"/><path class="b" d="M96.747,17.674a4.753,4.753,0,0,0,5.924,0,.9.9,0,1,0-1.12-1.407,2.938,2.938,0,0,1-3.686,0,.9.9,0,1,0-1.119,1.408Zm0,0" transform="translate(-90.608 -15.103)"/><path class="b" d="M305.614,17.673a4.753,4.753,0,0,0,5.925,0,.9.9,0,1,0-1.119-1.408,2.938,2.938,0,0,1-3.686,0,.9.9,0,1,0-1.12,1.407Zm0,0" transform="translate(-286.922 -15.103)"/><path class="b" d="M161.567,209.457a.9.9,0,0,0,0,1.8h.663a1.61,1.61,0,0,0,1.129-.457l.019-.018a1.743,1.743,0,0,1,1.881-.386l.789.316a.9.9,0,0,0,.736-.03l.286-.143a2.057,2.057,0,0,1,2.163.194l0,0a2.636,2.636,0,0,0,1.57.523h.39a.9.9,0,1,0,0-1.8h-.39a.827.827,0,0,1-.49-.162l0,0a3.844,3.844,0,0,0-3.972-.4l-.416-.166a3.539,3.539,0,0,0-3.768.733Zm0,0" transform="translate(-151.005 -195.944)"/><path class="b" d="M220.188,257.217a1.7,1.7,0,0,1-1.892,0,.9.9,0,0,0-1,1.5,3.5,3.5,0,0,0,3.887,0,.9.9,0,0,0-1-1.5Zm0,0" transform="translate(-203.864 -241.62)"/></g></g></svg>