<svg xmlns="http://www.w3.org/2000/svg" width="13.355" height="176" viewBox="0 0 13.355 176"><defs><style>.a{fill:#428dff;}</style></defs><g transform="translate(-676.323 -1362.677)"><g transform="translate(689.678 1437.623) rotate(90)"><g transform="translate(9.055 0)"><path class="a" d="M10.71,13.354a1.655,1.655,0,0,1-1.2-2.8l3.7-3.894L9.514,2.8A1.655,1.655,0,0,1,11.906.511L16.7,5.518a1.656,1.656,0,0,1,0,2.284L11.91,12.84A1.654,1.654,0,0,1,10.71,13.354Z" transform="translate(-9.055 0)"/></g></g><circle class="a" cx="2" cy="2" r="2" transform="translate(684.678 1464.677) rotate(90)"/><circle class="a" cx="2" cy="2" r="2" transform="translate(684.678 1418.677) rotate(90)"/><circle class="a" cx="2" cy="2" r="2" transform="translate(684.678 1390.677) rotate(90)"/><circle class="a" cx="2" cy="2" r="2" transform="translate(684.678 1520.677) rotate(90)"/><circle class="a" cx="2" cy="2" r="2" transform="translate(684.678 1362.677) rotate(90)"/><circle class="a" cx="2" cy="2" r="2" transform="translate(684.678 1492.677) rotate(90)"/><circle class="a" cx="2" cy="2" r="2" transform="translate(684.678 1478.677) rotate(90)"/><circle class="a" cx="2" cy="2" r="2" transform="translate(684.678 1432.677) rotate(90)"/><circle class="a" cx="2" cy="2" r="2" transform="translate(684.678 1404.677) rotate(90)"/><circle class="a" cx="2" cy="2" r="2" transform="translate(684.678 1534.677) rotate(90)"/><circle class="a" cx="2" cy="2" r="2" transform="translate(684.678 1376.677) rotate(90)"/><circle class="a" cx="2" cy="2" r="2" transform="translate(684.678 1506.677) rotate(90)"/></g></svg>