<svg xmlns="http://www.w3.org/2000/svg" width="64" height="13.355" viewBox="0 0 64 13.355"><defs><style>.a{fill:#428dff;}</style></defs><g transform="translate(-465 -2809)"><g transform="translate(483.945 2809)"><g transform="translate(9.055 0)"><path class="a" d="M10.71,13.354a1.655,1.655,0,0,1-1.2-2.8l3.7-3.894L9.514,2.8A1.655,1.655,0,0,1,11.906.511L16.7,5.518a1.656,1.656,0,0,1,0,2.284L11.91,12.84A1.654,1.654,0,0,1,10.71,13.354Z" transform="translate(-9.055 0)"/></g></g><circle class="a" cx="2" cy="2" r="2" transform="translate(511 2814)"/><circle class="a" cx="2" cy="2" r="2" transform="translate(465 2814)"/><circle class="a" cx="2" cy="2" r="2" transform="translate(525 2814)"/><circle class="a" cx="2" cy="2" r="2" transform="translate(479 2814)"/></g></svg>