<svg xmlns="http://www.w3.org/2000/svg" width="23.846" height="24" viewBox="0 0 23.846 24"><defs><style>.a{fill:#75c7fe;}.b{fill:#284055;}</style></defs><g transform="translate(-68.953 -754)"><path class="a" d="M18147.715,763.857l2,11.857h4v7.429h-10.857l-2.572-17.571Z" transform="translate(-18070 -6)"/><g transform="translate(68.953 754)"><path class="b" d="M38.311,16.959l-2.5.014,0-.712a.729.729,0,0,0-.752-.7H31.216L29.8,5.626a.749.749,0,0,0-.908-.593l-.3.063L27.949.61a.747.747,0,0,0-.888-.6L21.092,1.09a.71.71,0,0,0-.6.785l.693,4.762a.7.7,0,0,0-.512.759l2.211,15.992a.737.737,0,0,0,.746.613H35.092a.729.729,0,0,0,.752-.707l0-.722,2.51-.014a1.215,1.215,0,0,0,1.243-1.179l-.021-3.254a1.216,1.216,0,0,0-1.262-1.165ZM26.563,1.534,27.115,5.4l-4.46.926-.579-3.983ZM24.288,22.593l-1.269-9.175L26.4,12.69a.7.7,0,0,0,.564-.843.755.755,0,0,0-.9-.528l-3.24.7-.188-1.357,3.379-.727a.7.7,0,0,0,.564-.843.755.755,0,0,0-.9-.528l-3.235.7L22.25,7.852l6.167-1.281,1.4,9.787a.737.737,0,0,0,.745.61H34.3l.034,5.625H24.288Zm11.544-1.429-.017-2.785,2.255-.013.018,2.785Z" transform="translate(-20.483 0)"/><path class="b" d="M432.553,324.067l1.582-.527a.791.791,0,0,0-.5-1.5l-1.582.527a.791.791,0,0,0,.5,1.5Z" transform="translate(-410.83 -307.064)"/><path class="b" d="M433.889,392h-1.582a.791.791,0,0,0,0,1.582h1.582a.791.791,0,0,0,0-1.582Z" transform="translate(-410.834 -373.77)"/><path class="b" d="M434.034,452.567l-1.582-.527a.791.791,0,0,0-.5,1.5,9.212,9.212,0,0,0,1.832.568.791.791,0,0,0,.25-1.542Z" transform="translate(-410.734 -431.163)"/></g></g></svg>