<svg xmlns="http://www.w3.org/2000/svg" width="30.085" height="31.262" viewBox="0 0 30.085 31.262"><defs><style>.a{fill:#75c7fe;}.b{fill:#ff6464;}.c{fill:#284055;}</style></defs><g transform="translate(-905.69 -1195)"><g transform="translate(388 -77)"><path class="a" d="M16625.428,1289.371l4.23,1.486h4.684l6.629-1.486h1.83l.686,4-4.344,1.029-3.656,2.171-1.943,1.486-3.885-2.629-3.316-2.057h-2.971Z" transform="translate(-16101 -3)"/><path class="b" d="M16624.137,1288.521l9.406,1.5,9.795-1.5v1.5l-4.25,1.552-3.6,1.762-1.943.818-3.885-1.447-2.67-2.385-2.852-.7Z" transform="translate(-16101 0.904)"/><g transform="translate(457.432 1272.001)"><path class="c" d="M87.052,20.592a16.6,16.6,0,0,0-2.38-7.313A14.356,14.356,0,0,1,84.2,1.243a.916.916,0,0,0-1.71-.656A16.412,16.412,0,0,0,82.7,13.438c-4.141,1.893-11.16,1.885-14.789.071A16.392,16.392,0,0,0,68.148.587a.916.916,0,0,0-1.71.656,14.344,14.344,0,0,1-.473,12.036,16.431,16.431,0,0,0-2.38,7.313,17.513,17.513,0,0,0,2.652,10.249.916.916,0,0,0,1.541-.99A15.406,15.406,0,0,1,65.61,19.209c4.435.685,7.943,4.5,8.782,5.489v5.631a.916.916,0,0,0,1.832,0V24.7c.84-.988,4.349-4.815,8.8-5.491a15.407,15.407,0,0,1-2.168,10.646.916.916,0,0,0,1.541.99A17.514,17.514,0,0,0,87.052,20.592ZM75.308,22.965c-1.432-1.562-4.858-4.793-9.244-5.537a15.314,15.314,0,0,1,.972-2.309c4.347,2.205,12.111,2.012,16.532-.067a15.348,15.348,0,0,1,1.005,2.373C80.178,18.162,76.743,21.4,75.308,22.965Z" transform="translate(0 0)"/><ellipse class="c" cx="0.916" cy="0.915" rx="0.916" ry="0.915" transform="translate(74.392 9.22)"/></g></g><path class="c" d="M102.028.089A.476.476,0,0,0,101.39.3l-.951,1.9a.476.476,0,0,0,.428.688H102l-.607,1.214a.475.475,0,1,0,.851.425l.951-1.9a.476.476,0,0,0-.425-.688h-1.133l.607-1.214A.476.476,0,0,0,102.028.089Z" transform="translate(832.498 1273.593) rotate(-43)"/><path class="c" d="M1.213,3.318a.36.36,0,0,1-.472-.15l-.7-1.341a.337.337,0,0,1,.317-.485H1.19L.741.485A.328.328,0,0,1,.9.036a.36.36,0,0,1,.472.15l.7,1.341a.337.337,0,0,1-.315.485H.921l.449.856A.328.328,0,0,1,1.213,3.318Z" transform="translate(933.488 1210.128) rotate(-137)"/><path class="c" d="M101.491.072a.32.32,0,0,0-.429.143l-.639,1.278a.32.32,0,0,0,.288.463h.759l-.408.816a.32.32,0,1,0,.572.286l.639-1.278a.32.32,0,0,0-.286-.463h-.761L101.634.5A.32.32,0,0,0,101.491.072Z" transform="translate(832.244 1279.096) rotate(-43)"/><path class="c" d="M101.048.059a.191.191,0,0,0-.256.085l-.382.764a.191.191,0,0,0,.172.277h.454l-.244.488a.191.191,0,1,0,.342.171l.382-.764A.191.191,0,0,0,101.344.8h-.455l.244-.488A.191.191,0,0,0,101.048.059Z" transform="translate(837.512 1184.665) rotate(16)"/></g></svg>