<svg xmlns="http://www.w3.org/2000/svg" width="25.667" height="25.667" viewBox="0 0 25.667 25.667"><defs><style>.a{fill:#284055;}</style></defs><g transform="translate(1 1)"><g transform="translate(-1 -1)"><path class="a" d="M20.908,2.759a12.833,12.833,0,1,0,0,18.149A12.833,12.833,0,0,0,20.908,2.759ZM19.4,19.4a10.694,10.694,0,1,1,0-15.124A10.694,10.694,0,0,1,19.4,19.4Z" transform="translate(1 1)"/><path class="a" d="M154.054,143.473a1.069,1.069,0,0,0-1.512,0l-3.781,3.781-3.781-3.781a1.069,1.069,0,0,0-1.512,1.512l3.781,3.781-3.78,3.78a1.069,1.069,0,1,0,1.512,1.512l3.78-3.78,3.781,3.781a1.069,1.069,0,0,0,1.512-1.512l-3.781-3.781,3.781-3.781A1.069,1.069,0,0,0,154.054,143.473Z" transform="translate(-135.927 -135.933)"/></g></g></svg>