<svg xmlns="http://www.w3.org/2000/svg" width="35.667" height="35.667" viewBox="0 0 35.667 35.667"><defs><style>.a{fill:#fff;}</style></defs><g transform="translate(1 1)"><g transform="translate(-1 -1)"><path class="a" d="M29.443,4.224a17.833,17.833,0,1,0,0,25.22A17.832,17.832,0,0,0,29.443,4.224Zm-2.1,23.118a14.861,14.861,0,1,1,0-21.016A14.86,14.86,0,0,1,27.342,27.342Z" transform="translate(1 1)"/><path class="a" d="M158.3,143.6a1.486,1.486,0,0,0-2.1,0l-5.254,5.254-5.254-5.254a1.486,1.486,0,0,0-2.1,2.1l5.254,5.254-5.252,5.252a1.486,1.486,0,0,0,2.1,2.1l5.252-5.252,5.254,5.254a1.486,1.486,0,1,0,2.1-2.1l-5.254-5.254L158.3,145.7A1.486,1.486,0,0,0,158.3,143.6Z" transform="translate(-133.112 -133.117)"/></g></g></svg>