<svg xmlns="http://www.w3.org/2000/svg" width="34.687" height="24.564" viewBox="0 0 34.687 24.564"><defs><style>.a{fill:#75c7fe;}.b{fill:none;stroke:#284055;stroke-linecap:round;stroke-width:1.3px;}.c{fill:#284055;}</style></defs><g transform="translate(-61.245 -1199.12)"><path class="a" d="M16169.327,1211.925h20.824a18.042,18.042,0,0,1-3.077,4.761,7.45,7.45,0,0,1-3.834,1.95l-1.041,2.21v4.225h-5.069v-5l-1.3-1.43-4.555-2.092Z" transform="translate(-16101 -3)"/><g transform="translate(-152 -110)"><path class="b" d="M16347.41,1313.889a4.759,4.759,0,0,1,1.059,2.492,2.384,2.384,0,0,1-1.059,2.368,4.506,4.506,0,0,1-2.617.685l-1.068-2.119a9.75,9.75,0,0,0-3.687-3.156c-2.18-.919-2.714-1.44-5.682-1.388a12.892,12.892,0,0,0-5.14.681,8.541,8.541,0,0,0-3.3,1.807,15.558,15.558,0,0,0-1.857,2.056,9.713,9.713,0,0,0-1.133,2.119,5.943,5.943,0,0,1-2.057-.685c-.841-.53-.981-.654-1.309-1.433a2.613,2.613,0,0,1,0-2.056,2.789,2.789,0,0,1,.935-1.371" transform="translate(-16103.371 -3)"/><g transform="translate(213.896 1310.878)"><path class="b" d="M16369.6,1315.143a11.265,11.265,0,0,1,.521,2.82,4.232,4.232,0,0,1-1.951,3.774,11.585,11.585,0,0,1-3.991,1.518l-1.085,2.733a7,7,0,0,1-2.037,2.169c-1.442,1.03-2.506.9-3.73,1.952a3.041,3.041,0,0,0-1.172,2.256l-.26,4.9" transform="translate(-16336.737 -1315.143)"/><path class="b" d="M16356.418,1315.143a11.247,11.247,0,0,0-.521,2.82,4.234,4.234,0,0,0,1.951,3.774,11.587,11.587,0,0,0,3.992,1.518l1.084,2.733a7,7,0,0,0,2.038,2.169c1.442,1.03,2.5.9,3.729,1.952a3.037,3.037,0,0,1,1.172,2.256l.262,4.9" transform="translate(-16355.896 -1315.143)"/></g></g><circle class="c" cx="0.5" cy="0.5" r="0.5" transform="translate(74 1211)"/><circle class="c" cx="0.5" cy="0.5" r="0.5" transform="translate(72 1212)"/><circle class="c" cx="1" cy="1" r="1" transform="translate(76 1214)"/><circle class="c" cx="1" cy="1" r="1" transform="translate(78 1211)"/><circle class="c" cx="1" cy="1" r="1" transform="translate(83 1211)"/><circle class="c" cx="0.5" cy="0.5" r="0.5" transform="translate(81 1213)"/></g></svg>