<svg xmlns="http://www.w3.org/2000/svg" width="124.133" height="124" viewBox="0 0 124.133 124"><defs><style>.a{fill:#7fabfa;}.b,.h{fill:#a4c2f7;}.c{fill:#e3e7f2;}.d{fill:#d4e1f4;}.e{fill:#fff;}.f{fill:#428dff;}.g,.j,.l{fill:none;}.g,.h,.j{stroke:#428dff;}.g{stroke-width:4px;}.h{stroke-width:2px;}.i{fill:#acffbf;}.j{stroke-linecap:square;stroke-width:3px;}.k{stroke:none;}</style></defs><g transform="translate(-228.8 -2850.8)"><g transform="translate(228.8 2850.8)"><path class="a" d="M33.858,101.635h86.4a8.277,8.277,0,0,0,8.276-8.276V16.811a8.276,8.276,0,0,0-8.276-8.275H16.811a8.275,8.275,0,0,0-8.275,8.275V93.359a8.25,8.25,0,0,0,7.82,8.256Zm0,0" transform="translate(-6.466 -6.466)"/><path class="b" d="M32.105,101.635h80.439a8,8,0,0,0,7.7-8.276V16.811a8,8,0,0,0-7.7-8.275H16.225a8,8,0,0,0-7.7,8.275V93.359a8.019,8.019,0,0,0,7.28,8.256Zm0,0" transform="translate(-6.451 -6.466)"/><path class="a" d="M196.266,392.535h28.965v10.344H196.266Zm0,0" transform="translate(-148.682 -297.477)"/><path class="a" d="M148.948,435.2h33.1a12.414,12.414,0,0,1,12.414,12.413,4.139,4.139,0,0,1-4.138,4.139H140.672a4.138,4.138,0,0,1-4.138-4.139A12.413,12.413,0,0,1,148.947,435.2Zm0,0" transform="translate(-103.432 -329.819)"/><path class="b" d="M148.948,435.2h24.826a12.413,12.413,0,0,1,12.413,12.413,4.138,4.138,0,0,1-4.138,4.139H140.672a4.138,4.138,0,0,1-4.138-4.139A12.413,12.413,0,0,1,148.947,435.2Zm0,0" transform="translate(-103.432 -329.819)"/><path class="b" d="M428.478,443.734a10.345,10.345,0,0,1,10.345,10.344,4.139,4.139,0,0,1-4.138,4.139H422.271a4.138,4.138,0,0,1-4.138-4.139A10.344,10.344,0,0,1,428.478,443.734Zm0,0" transform="translate(-316.758 -336.285)"/><path class="b" d="M146.112,44.736V59.219H42.668V44.736a2.069,2.069,0,0,1,2.068-2.068h99.307a2.069,2.069,0,0,1,2.068,2.068Zm0,0" transform="translate(-32.323 -32.323)"/><path class="c" d="M139.9,44.736V59.219H42.664V44.736a2.015,2.015,0,0,1,1.944-2.068h93.348a2.015,2.015,0,0,1,1.945,2.068Zm0,0" transform="translate(-32.32 -32.323)"/><path class="d" d="M42.668,110.934v49.653a2.069,2.069,0,0,0,2.068,2.068h99.307a2.069,2.069,0,0,0,2.068-2.068V110.934Zm0,0" transform="translate(-32.323 -84.088)"/><path class="e" d="M42.664,110.934v49.653a2.015,2.015,0,0,0,1.944,2.068h93.348a2.015,2.015,0,0,0,1.945-2.068V110.934Zm0,0" transform="translate(-32.32 -84.088)"/><path class="e" d="M15.8,101.614l16.3.021h6.207l-16.3-.021a8.02,8.02,0,0,1-7.289-8.256V16.811a8,8,0,0,1,7.7-8.275H16.224a8,8,0,0,0-7.7,8.275V93.359a8.019,8.019,0,0,0,7.28,8.256Zm0,0" transform="translate(-6.451 -6.466)"/><path class="e" d="M140.673,419.431h6.206a4.138,4.138,0,0,1-4.138-4.139,12.414,12.414,0,0,1,12.413-12.413h2.069V392.535h-6.207v10.344h-2.068a12.413,12.413,0,0,0-12.413,12.413A4.138,4.138,0,0,0,140.673,419.431Zm0,0" transform="translate(-103.433 -297.499)"/><path class="e" d="M0,119.216V42.668H4.138v76.548Zm0,0" transform="translate(0 -32.323)"/><path class="f" d="M1.284,285.573a1.316,1.316,0,0,0,.372.124,3.183,3.183,0,0,0,.414.042,2.179,2.179,0,0,0,1.469-.6,2.127,2.127,0,0,0,.434-.683,2.113,2.113,0,0,0-.434-2.255,2.156,2.156,0,0,0-.683-.435,2.062,2.062,0,0,0-.786-.165,2.172,2.172,0,0,0-1.469.6,2.1,2.1,0,0,0,0,2.938l.31.248a1.564,1.564,0,0,0,.373.187Zm0,0" transform="translate(-0.001 -213.403)"/><path class="f" d="M113.788,0H10.345A10.351,10.351,0,0,0,0,10.334V62a2.069,2.069,0,0,0,4.138,0V10.334a6.2,6.2,0,0,1,6.207-6.2H113.788a6.2,6.2,0,0,1,6.207,6.2V86.8a6.2,6.2,0,0,1-6.207,6.2H10.345a6.2,6.2,0,0,1-6.207-6.2V78.533a2.069,2.069,0,0,0-4.138,0V86.8A10.351,10.351,0,0,0,10.345,97.133H45.516v6.2A14.49,14.49,0,0,0,31.033,117.8,6.2,6.2,0,0,0,37.24,124H86.894a6.2,6.2,0,0,0,6.206-6.2,14.49,14.49,0,0,0-14.482-14.466v-6.2h35.171A10.351,10.351,0,0,0,124.133,86.8V10.334A10.351,10.351,0,0,0,113.788,0ZM88.962,117.8a2.068,2.068,0,0,1-2.068,2.067H37.24a2.068,2.068,0,0,1-2.069-2.067,10.351,10.351,0,0,1,10.345-10.333h33.1A10.351,10.351,0,0,1,88.962,117.8ZM74.48,103.334H49.654v-6.2H74.48Zm0,0" transform="translate(0)"/><path class="f" d="M422.015,435.2A12.426,12.426,0,0,0,409.6,447.612a6.206,6.206,0,0,0,6.206,6.207h12.414a6.207,6.207,0,0,0,6.206-6.207A12.426,12.426,0,0,0,422.015,435.2Zm6.207,14.482H415.808a2.069,2.069,0,0,1-2.068-2.069,8.275,8.275,0,0,1,6.206-7.981v1.775a2.069,2.069,0,0,0,4.138,0v-1.775a8.275,8.275,0,0,1,6.207,7.981,2.069,2.069,0,0,1-2.068,2.069Zm0,0" transform="translate(-310.295 -329.819)"/><path class="f" d="M72.4,70.335a2.069,2.069,0,1,1-2.068-2.069A2.069,2.069,0,0,1,72.4,70.335Zm0,0" transform="translate(-51.715 -51.715)"/><path class="f" d="M106.54,70.335a2.069,2.069,0,1,1-2.069-2.069A2.069,2.069,0,0,1,106.54,70.335Zm0,0" transform="translate(-77.575 -51.715)"/><path class="f" d="M140.673,70.335a2.069,2.069,0,1,1-2.069-2.069A2.069,2.069,0,0,1,140.673,70.335Zm0,0" transform="translate(-103.433 -51.715)"/><path class="f" d="M240.746,460.8H232.47a2.069,2.069,0,0,0,0,4.138h8.275a2.069,2.069,0,1,0,0-4.138Zm0,0" transform="translate(-174.542 -349.214)"/><g class="g" transform="translate(8.2 7.2)"><rect class="k" width="106" height="74" rx="2"/><rect class="l" x="2" y="2" width="102" height="70"/></g><g class="g" transform="translate(8.2 7.2)"><rect class="k" width="106" height="21" rx="2"/><rect class="l" x="2" y="2" width="102" height="17"/></g></g><g transform="translate(251 2885.96)"><rect class="b" width="54" height="8" transform="translate(22)"/><rect class="b" width="12" height="8"/></g><g transform="translate(251 2897.946)"><g class="h" transform="translate(22)"><rect class="k" width="54" height="8" rx="2"/><rect class="l" x="1" y="1" width="52" height="6" rx="1"/></g><g class="h"><rect class="k" width="12" height="8" rx="2"/><rect class="l" x="1" y="1" width="10" height="6" rx="1"/></g></g><g transform="translate(251 2909.932)"><rect class="b" width="54" height="8" transform="translate(22)"/><rect class="b" width="12" height="8"/></g><g transform="translate(310.881 2901.72)"><path class="i" d="M280.467,261.5l-9.482,1.185,8.677,9.53a4.744,4.744,0,0,1-6.71,6.708L262.783,267.9l-4.718,7.088a1.184,1.184,0,0,1-2.156-.474l-3.96-25.673a1.185,1.185,0,0,1,1.636-1.281L280.8,259.223a1.185,1.185,0,0,1-.332,2.276Zm0,0" transform="translate(-250.788 -246.319)"/><path class="j" d="M283.121,262.8l-10.364,1.3,9.484,10.416a5.185,5.185,0,0,1-7.334,7.333L263.792,269.8l-5.157,7.748a1.295,1.295,0,0,1-2.357-.518l-4.328-28.061a1.3,1.3,0,0,1,1.789-1.4l29.745,12.748a1.3,1.3,0,0,1-.363,2.487Zm0,0" transform="translate(-251.933 -247.464)"/></g></g></svg>