<svg xmlns="http://www.w3.org/2000/svg" width="246" height="246" viewBox="0 0 246 246"><defs><style>.a{fill:#f2fafe;}.b{fill:#7fabfa;}.c,.i{fill:#a4c2f7;}.d{fill:#e3e7f2;}.e{fill:#d4e1f4;}.f{fill:#fff;}.g{fill:#428dff;}.h,.k,.m{fill:none;}.h,.i,.k{stroke:#428dff;}.h{stroke-width:4px;}.i{stroke-width:2px;}.j{fill:#acffbf;}.k{stroke-linecap:square;stroke-width:3px;}.l{stroke:none;}</style></defs><g transform="translate(-847 -1227)"><circle class="a" cx="123" cy="123" r="123" transform="translate(847 1227)"/><g transform="translate(666.199 -1575.8)"><g transform="translate(228.8 2850.8)"><path class="b" d="M39.221,121.353h104.7a10.03,10.03,0,0,0,10.029-10.029V18.564A10.029,10.029,0,0,0,143.916,8.536H18.563A10.028,10.028,0,0,0,8.535,18.564v92.76a10,10,0,0,0,9.476,10Zm0,0" transform="translate(-6.028 -6.028)"/><path class="c" d="M37.1,121.353h97.475a9.7,9.7,0,0,0,9.326-10.029V18.564a9.7,9.7,0,0,0-9.336-10.028H17.857A9.7,9.7,0,0,0,8.521,18.564v92.76a9.718,9.718,0,0,0,8.822,10Zm0,0" transform="translate(-6.014 -6.028)"/><path class="b" d="M196.266,392.535h35.1V405.07h-35.1Zm0,0" transform="translate(-138.604 -277.345)"/><path class="b" d="M151.577,435.2h40.112a15.044,15.044,0,0,1,15.043,15.042,5.016,5.016,0,0,1-5.014,5.015h-60.17a5.015,5.015,0,0,1-5.014-5.015A15.043,15.043,0,0,1,151.576,435.2Zm0,0" transform="translate(-96.421 -307.5)"/><path class="c" d="M151.577,435.2h30.084A15.043,15.043,0,0,1,196.7,450.241a5.015,5.015,0,0,1-5.014,5.015h-50.14a5.015,5.015,0,0,1-5.014-5.015A15.043,15.043,0,0,1,151.577,435.2Zm0,0" transform="translate(-96.421 -307.5)"/><path class="c" d="M430.669,443.734A12.536,12.536,0,0,1,443.2,456.269a5.016,5.016,0,0,1-5.014,5.015H423.147a5.015,5.015,0,0,1-5.014-5.015A12.535,12.535,0,0,1,430.669,443.734Zm0,0" transform="translate(-295.287 -313.528)"/><path class="c" d="M168.02,45.174v17.55H42.668V45.174a2.507,2.507,0,0,1,2.506-2.506h120.34a2.507,2.507,0,0,1,2.506,2.506Zm0,0" transform="translate(-30.132 -30.132)"/><path class="d" d="M160.5,45.174v17.55H42.664V45.174a2.441,2.441,0,0,1,2.356-2.506H158.14a2.442,2.442,0,0,1,2.357,2.506Zm0,0" transform="translate(-30.129 -30.132)"/><path class="e" d="M42.668,110.934V171.1a2.507,2.507,0,0,0,2.506,2.506h120.34a2.507,2.507,0,0,0,2.506-2.506v-60.17Zm0,0" transform="translate(-30.132 -78.402)"/><path class="f" d="M42.664,110.934V171.1a2.441,2.441,0,0,0,2.356,2.506H158.14A2.442,2.442,0,0,0,160.5,171.1v-60.17Zm0,0" transform="translate(-30.13 -78.402)"/><path class="f" d="M17.343,121.328l19.758.025h7.522l-19.749-.025a9.718,9.718,0,0,1-8.832-10V18.563A9.7,9.7,0,0,1,25.377,8.535H17.857A9.7,9.7,0,0,0,8.521,18.563v92.76a9.718,9.718,0,0,0,8.822,10Zm0,0" transform="translate(-6.013 -6.028)"/><path class="f" d="M141.55,425.127h7.521a5.015,5.015,0,0,1-5.014-5.015A15.043,15.043,0,0,1,159.1,405.07h2.508V392.535h-7.522V405.07h-2.506a15.043,15.043,0,0,0-15.042,15.042A5.015,5.015,0,0,0,141.55,425.127Zm0,0" transform="translate(-96.422 -277.371)"/><path class="f" d="M0,135.428V42.668H5.014v92.76Zm0,0" transform="translate(0 -30.132)"/><path class="g" d="M1.556,286.414a1.594,1.594,0,0,0,.451.15,3.871,3.871,0,0,0,.5.05,2.641,2.641,0,0,0,1.78-.728,2.578,2.578,0,0,0,.526-.827,2.56,2.56,0,0,0-.526-2.733,2.613,2.613,0,0,0-.827-.527,2.5,2.5,0,0,0-.953-.2,2.632,2.632,0,0,0-1.78.726,2.542,2.542,0,0,0,0,3.56l.375.3a1.9,1.9,0,0,0,.452.226Zm0,0" transform="translate(-0.001 -198.959)"/><path class="g" d="M137.888,0H12.536A12.543,12.543,0,0,0,0,12.522V75.131a2.507,2.507,0,0,0,5.014,0V12.522a7.517,7.517,0,0,1,7.522-7.514H137.888a7.517,7.517,0,0,1,7.522,7.514v92.661a7.517,7.517,0,0,1-7.522,7.514H12.536a7.517,7.517,0,0,1-7.522-7.514V95.166a2.507,2.507,0,0,0-5.014,0v10.017a12.543,12.543,0,0,0,12.536,12.522h42.62v7.514a17.559,17.559,0,0,0-17.55,17.53,7.517,7.517,0,0,0,7.522,7.514H105.3a7.517,7.517,0,0,0,7.521-7.514,17.559,17.559,0,0,0-17.55-17.53v-7.514h42.62a12.543,12.543,0,0,0,12.536-12.522V12.522A12.543,12.543,0,0,0,137.888,0ZM107.8,142.749a2.506,2.506,0,0,1-2.506,2.5H45.128a2.506,2.506,0,0,1-2.508-2.5,12.543,12.543,0,0,1,12.536-12.521H95.268A12.543,12.543,0,0,1,107.8,142.749Zm-17.55-17.53H60.17v-7.514H90.254Zm0,0" transform="translate(0)"/><path class="g" d="M424.644,435.2A15.057,15.057,0,0,0,409.6,450.241a7.521,7.521,0,0,0,7.521,7.522h15.043a7.521,7.521,0,0,0,7.521-7.522A15.057,15.057,0,0,0,424.644,435.2Zm7.522,17.55H417.122a2.507,2.507,0,0,1-2.507-2.508,10.027,10.027,0,0,1,7.521-9.671v2.151a2.507,2.507,0,0,0,5.014,0V440.57a10.027,10.027,0,0,1,7.522,9.671,2.507,2.507,0,0,1-2.506,2.508Zm0,0" transform="translate(-289.262 -307.5)"/><path class="g" d="M73.28,70.773a2.507,2.507,0,1,1-2.506-2.508A2.507,2.507,0,0,1,73.28,70.773Zm0,0" transform="translate(-48.209 -48.209)"/><path class="g" d="M107.417,70.773a2.507,2.507,0,1,1-2.508-2.508A2.507,2.507,0,0,1,107.417,70.773Zm0,0" transform="translate(-72.317 -48.209)"/><path class="g" d="M141.55,70.773a2.507,2.507,0,1,1-2.508-2.508A2.507,2.507,0,0,1,141.55,70.773Zm0,0" transform="translate(-96.422 -48.209)"/><path class="g" d="M242.937,460.8H232.908a2.507,2.507,0,0,0,0,5.014h10.028a2.507,2.507,0,1,0,0-5.014Zm0,0" transform="translate(-162.711 -325.58)"/><g class="h" transform="translate(9.936 8.725)"><rect class="l" width="128.45" height="89.673" rx="2"/><rect class="m" x="2" y="2" width="124.45" height="85.673"/></g><g class="h" transform="translate(9.936 8.725)"><rect class="l" width="128.45" height="25.448" rx="2"/><rect class="m" x="2" y="2" width="124.45" height="21.448"/></g></g><g transform="translate(255.702 2893.406)"><rect class="c" width="65.437" height="9.694" transform="translate(26.659)"/><rect class="c" width="14.542" height="9.694"/></g><g transform="translate(255.702 2907.931)"><g class="i" transform="translate(26.659)"><rect class="l" width="65.437" height="9.694" rx="2"/><rect class="m" x="1" y="1" width="63.437" height="7.694" rx="1"/></g><g class="i"><rect class="l" width="14.542" height="9.694" rx="2"/><rect class="m" x="1" y="1" width="12.542" height="7.694" rx="1"/></g></g><g transform="translate(255.702 2922.456)"><rect class="c" width="65.437" height="9.694" transform="translate(26.659)"/><rect class="c" width="14.542" height="9.694"/></g><g transform="translate(328.265 2912.505)"><path class="j" d="M286.51,264.471l-11.49,1.436,10.515,11.548a5.749,5.749,0,0,1-8.131,8.129l-12.323-13.358-5.718,8.59a1.435,1.435,0,0,1-2.613-.575l-4.8-31.11a1.437,1.437,0,0,1,1.983-1.552l32.977,14.134a1.436,1.436,0,0,1-.4,2.758Zm0,0" transform="translate(-250.545 -246.076)"/><path class="k" d="M289.726,266.053l-12.559,1.57,11.493,12.622a6.283,6.283,0,0,1-8.887,8.886L266.3,274.53l-6.249,9.389a1.569,1.569,0,0,1-2.856-.628l-5.245-34a1.57,1.57,0,0,1,2.167-1.7l36.045,15.448a1.57,1.57,0,0,1-.44,3.014Zm0,0" transform="translate(-251.933 -247.464)"/></g></g></g></svg>