<svg xmlns="http://www.w3.org/2000/svg" width="246" height="246" viewBox="0 0 246 246"><defs><style>.a{fill:#f2fafe;}.b{fill:#a4c2f7;}.c{fill:#d4e1f4;}.d{fill:#acffbf;}.e{fill:#e3e7f2;}.f{fill:#fff;}.g{fill:#428dff;}</style></defs><g transform="translate(-847 -1769)"><circle class="a" cx="123" cy="123" r="123" transform="translate(847 1769)"/><g transform="translate(-101 24.001)"><g transform="translate(989.999 1790)"><g transform="translate(0 0)"><path class="b" d="M199.332,39.735V92.02c-1.611-.156-3.328-.287-5.2-.287-.883,0-1.767.026-2.6.079a6.382,6.382,0,0,0-1.222.1h-.077c-24.7,2.028-24.831,23.843-27.3,36.218-2.6,13-12.792,31.2-20.8,31.2h-26a5.215,5.215,0,0,1-5.2-5.2V13.734a5.216,5.216,0,0,1,5.2-5.2h52Zm0,0" transform="translate(-77.133 -5.935)"/><path class="c" d="M191.534,39.735V92.021c-.417-.026-.806-.079-1.222-.1h-.077c-1.222-.1-2.522-.182-3.9-.182-28.6,0-28.6,23.4-31.2,36.4s-12.792,31.2-20.8,31.2h-18.2a5.215,5.215,0,0,1-5.2-5.2V13.735a5.216,5.216,0,0,1,5.2-5.2h44.2Zm0,0" transform="translate(-77.134 -5.935)"/><path class="b" d="M309.068,39.736h20.8l-31.2-31.2v20.8a10.4,10.4,0,0,0,10.4,10.4Zm0,0" transform="translate(-207.669 -5.936)"/><path class="b" d="M301.735,323.2a17.96,17.96,0,0,1-.13,2.054v.026a15.62,15.62,0,0,1-3.224,7.981c-3.328,4.394-9.1,7.592-16.589,9.932-1.612.494-3.328.962-5.121,1.4a144.87,144.87,0,0,1-17.394,2.808c-1.69.182-3.431.364-5.174.494-9.88.832-20.747,1.17-32,1.273-2.886.026-5.825.026-8.762.026a.674.674,0,0,0,.233-.026,13.305,13.305,0,0,0,8.424-5.512,61.619,61.619,0,0,0,10.322-19.057,53.737,53.737,0,0,0,1.559-5.408c.1-.417.182-.806.261-1.2,1.144-5.772,1.794-13.624,4.654-20.54a30.319,30.319,0,0,1,2.678-5.044c3.692-5.538,9.673-9.776,19.838-10.634.079,0,.156-.025.261-.025,1.2-.1,2.47-.157,3.769-.157a46.277,46.277,0,0,1,7.489.573h.026c14.845,2.366,17.887,11.83,18.433,16.925a3.355,3.355,0,0,0,.182.858,6.849,6.849,0,0,0,2.808,3.953c.078.051.13.1.208.156,3.042,2.314,7.254,7.566,7.254,19.136Zm0,0" transform="translate(-148.336 -195.802)"/><path class="d" d="M294.466,323.56a17.691,17.691,0,0,1-.13,2.054v.026a15.609,15.609,0,0,1-3.224,7.981c-3.328,4.394-9.1,7.592-16.587,9.932-1.613.494-3.328.962-5.122,1.4a144.857,144.857,0,0,1-17.393,2.808c-1.69.182-3.432.364-5.174.494-9.881.832-20.748,1.17-32.006,1.273H214.1a13.3,13.3,0,0,0,8.424-5.512,61.617,61.617,0,0,0,10.322-19.057,53.727,53.727,0,0,0,1.559-5.408c.1-.417.182-.806.261-1.2,1.144-5.772,1.794-13.624,4.654-20.54A30.322,30.322,0,0,1,242,292.777c3.692-5.538,9.673-9.776,19.838-10.634.079,0,.156-.025.261-.025,1.221.1,2.366.233,3.457.415h.026c14.846,2.366,17.888,11.83,18.433,16.925a3.4,3.4,0,0,0,.182.858,6.856,6.856,0,0,0,2.809,3.953c.077.051.13.1.207.156,3.042,2.314,7.254,7.566,7.254,19.136Zm0,0" transform="translate(-148.868 -196.162)"/><path class="b" d="M10.129,146.675a5.528,5.528,0,0,0-.151,7.608l22.056,24.089a17.533,17.533,0,0,0,12.926,5.7v-.834A17.808,17.808,0,0,0,40.294,171.2L17.98,146.833a5.415,5.415,0,0,0-7.852-.158Zm0,0" transform="translate(-5.934 -100.868)"/><path class="e" d="M17.98,146.833a5.415,5.415,0,0,0-7.852-.158,5.528,5.528,0,0,0-.151,7.608l3.851,4.2,7.706-7.768Zm0,0" transform="translate(-5.934 -100.868)"/><path class="f" d="M110.934,13.735V67.141l7.8,8.52V13.735a5.216,5.216,0,0,1,5.2-5.2h-7.8a5.216,5.216,0,0,0-5.2,5.2Zm0,0" transform="translate(-77.134 -5.936)"/><path class="f" d="M47.533,249.081v-65.8a17.58,17.58,0,0,1-7.7-4.9L17.776,154.3a5.456,5.456,0,0,1-1.1-1.82,5.577,5.577,0,0,1-.261-1,5.7,5.7,0,0,1-.081-1.016,5.6,5.6,0,0,1,.421-2.008,5.452,5.452,0,0,1,1.121-1.7,5.408,5.408,0,0,0-7.748-.068,5.514,5.514,0,0,0-1.172,1.765,5.6,5.6,0,0,0-.421,2.008,5.707,5.707,0,0,0,.075,1.027,5.565,5.565,0,0,0,.261,1,5.481,5.481,0,0,0,1.1,1.821L32.026,178.4a17.58,17.58,0,0,0,7.706,4.888v65.8a5.215,5.215,0,0,0,5.2,5.2h7.8a5.215,5.215,0,0,1-5.2-5.2Zm0,0" transform="translate(-5.932 -100.884)"/><path class="f" d="M239.567,503.027a5.585,5.585,0,0,0,1.095-.156,6.007,6.007,0,0,1-1.154.159h.06Zm0,0" transform="translate(-166.533 -349.656)"/><path class="f" d="M245.242,501.6a7.8,7.8,0,0,0,.78-.3A7.178,7.178,0,0,1,245.242,501.6Zm0,0" transform="translate(-170.52 -348.558)"/><path class="f" d="M102.4,376.3V328.058h5.2V376.3Zm0,0" transform="translate(-71.202 -228.105)"/><path class="g" d="M105,443.738a2.6,2.6,0,0,0-2.6,2.6v10.4h5.2v-10.4a2.6,2.6,0,0,0-2.6-2.6Zm0,0" transform="translate(-71.202 -308.539)"/><path class="g" d="M107.6,328.059h-5.2V345.1a2.6,2.6,0,0,0,5.2,0Zm0,0" transform="translate(-71.202 -228.106)"/><path class="g" d="M102.4,412.2a2.732,2.732,0,0,0,.753,1.846l.39.312a1.978,1.978,0,0,0,.468.234,1.664,1.664,0,0,0,.468.156,4.026,4.026,0,0,0,.52.052,2.736,2.736,0,0,0,1.846-.755,2.689,2.689,0,0,0,.546-.858,2.653,2.653,0,0,0-.546-2.834,2.7,2.7,0,0,0-.858-.546A2.6,2.6,0,0,0,105,409.6a2.575,2.575,0,0,0-2.6,2.6Zm0,0" transform="translate(-71.201 -284.804)"/><path class="g" d="M323.932,36.4h-20.8a13.016,13.016,0,0,1-13-13V2.6A2.6,2.6,0,0,1,294.571.767l31.2,31.2a2.6,2.6,0,0,1-1.839,4.438Zm-28.6-27.523V23.405a7.8,7.8,0,0,0,7.8,7.8h14.524Zm0,0" transform="translate(-201.734 -0.005)"/><path class="g" d="M207.4,345.869a2.6,2.6,0,1,1,0-5.2c5.691,0,15.584-15.779,18.251-29.12.3-1.49.559-3.119.834-4.831,2.166-13.392,5.439-33.649,32.913-33.649,23.858,0,27.906,13.87,28.543,19.835a4.362,4.362,0,0,0,1.905,2.968c3.9,2.811,8.551,8.8,8.551,21.4,0,26.39-44.955,28.6-91,28.6Zm52-67.6c-23.045,0-25.672,16.24-27.78,29.291-.287,1.778-.559,3.471-.871,5.018a63.846,63.846,0,0,1-13.839,28.049c38.489-.349,76.29-3.409,76.29-23.358,0-10.938-4-15.457-6.39-17.175a9.569,9.569,0,0,1-4.041-6.64c-.6-5.671-4.441-15.184-23.369-15.184Zm0,0" transform="translate(-142.401 -189.871)"/><path class="g" d="M467.762,328.687a2.6,2.6,0,0,1-.962-5.015,16.58,16.58,0,0,0,7.706-6.5,2.6,2.6,0,1,1,4.654,2.324,21.7,21.7,0,0,1-10.446,9.011A2.606,2.606,0,0,1,467.762,328.687Zm0,0" transform="translate(-323.434 -219.535)"/><path class="g" d="M136.2,156h-26a7.8,7.8,0,0,1-7.8-7.8,2.6,2.6,0,0,1,5.2,0,2.6,2.6,0,0,0,2.6,2.6h26c5.691,0,15.584-15.779,18.251-29.12.3-1.49.559-3.119.834-4.831C157.453,103.459,160.726,83.2,188.2,83.2c.861,0,1.716.024,2.6.07V34.879L161.125,5.2H110.2a2.6,2.6,0,0,0-2.6,2.6V54.6a2.6,2.6,0,1,1-5.2,0V7.8A7.8,7.8,0,0,1,110.2,0h52a2.6,2.6,0,0,1,1.838.762l31.2,31.2A2.6,2.6,0,0,1,196,33.8V86.088a2.6,2.6,0,0,1-2.86,2.586,46.927,46.927,0,0,0-4.94-.273c-23.045,0-25.672,16.24-27.78,29.291-.287,1.778-.559,3.471-.871,5.018C156.9,135.966,146.234,156,136.2,156Zm0,0" transform="translate(-71.201 -0.004)"/><path class="g" d="M105,310.226a2.6,2.6,0,0,1-2.6-2.6v-6.354a2.6,2.6,0,0,1,5.2,0v6.354A2.6,2.6,0,0,1,105,310.226Zm0,0" transform="translate(-71.202 -207.673)"/><path class="g" d="M207.4,393.088a2.6,2.6,0,0,1-.684-5.109c.52-.14,51.388-14.323,77.942-46.065a2.6,2.6,0,1,1,3.991,3.335c-27.617,33.02-78.414,47.162-80.565,47.748a2.6,2.6,0,0,1-.683.092Zm0,0" transform="translate(-142.397 -237.09)"/><path class="g" d="M388.548,333.611a2.6,2.6,0,0,1-2.6-2.52c-.546-17.235-13.473-17.828-14.021-17.843a2.617,2.617,0,0,1-2.537-2.6c0-.154-.13-15.619-8.487-23.9a18.531,18.531,0,0,0-13.563-5.182h-.011a2.6,2.6,0,0,1-.018-5.2,23.754,23.754,0,0,1,17.279,6.708c7.88,7.823,9.557,20.222,9.914,25.305,5.036,1.04,16.1,5.281,16.64,22.549a2.6,2.6,0,0,1-2.515,2.678Zm0,0" transform="translate(-239.688 -192.155)"/><path class="g" d="M330.959,376.5h-.242a2.6,2.6,0,0,1-2.34-2.829,17.881,17.881,0,0,0-8.426-17.735,2.612,2.612,0,0,1-1.376-1.835c-.2-1.063-5.239-26-25.68-24.748a2.652,2.652,0,0,1-2.774-2.442,2.6,2.6,0,0,1,2.436-2.764c19.394-1.185,28.47,17.022,30.878,27.82a23.033,23.033,0,0,1,10.106,22.172,2.6,2.6,0,0,1-2.582,2.361Zm0,0" transform="translate(-201.722 -225.345)"/><path class="g" d="M296.951,434.04a2.694,2.694,0,0,1-.325-.021,2.6,2.6,0,0,1-2.258-2.9c1.04-8.413-3.941-11.559-4.16-11.7a2.674,2.674,0,0,1-1.238-1.794,14.533,14.533,0,0,0-5.569-8.757,12.223,12.223,0,0,0-10.072-.691,2.6,2.6,0,0,1-1.438-5,17.135,17.135,0,0,1,14.3,1.3,19.093,19.093,0,0,1,7.662,11.179,16.9,16.9,0,0,1,5.678,16.12A2.6,2.6,0,0,1,296.951,434.04Zm0,0" transform="translate(-187.751 -279.648)"/><path class="g" d="M175.534,99.071h-36.4a2.6,2.6,0,0,1,0-5.2h36.4a2.6,2.6,0,0,1,0,5.2Zm0,0" transform="translate(-94.935 -27.53)"/><path class="g" d="M175.534,312.4h-36.4a2.6,2.6,0,0,1,0-5.2h36.4a2.6,2.6,0,0,1,0,5.2Zm0,0" transform="translate(-94.935 -213.605)"/><path class="g" d="M157.335,346.535h-18.2a2.6,2.6,0,0,1,0-5.2h18.2a2.6,2.6,0,1,1,0,5.2Zm0,0" transform="translate(-94.935 -237.337)"/><path class="g" d="M170.335,380.668h-31.2a2.6,2.6,0,0,1,0-5.2h31.2a2.6,2.6,0,0,1,0,5.2Zm0,0" transform="translate(-94.935 -261.07)"/><path class="g" d="M154.736,414.8h-15.6a2.6,2.6,0,0,1,0-5.2h15.6a2.6,2.6,0,0,1,0,5.2Zm0,0" transform="translate(-94.935 -284.804)"/><path class="g" d="M165.135,448.938h-26a2.6,2.6,0,0,1,0-5.2h26a2.6,2.6,0,0,1,0,5.2Zm0,0" transform="translate(-94.935 -308.54)"/><path class="g" d="M162.534,64.938h-23.4a2.6,2.6,0,0,1,0-5.2h23.4a2.6,2.6,0,1,1,0,5.2Zm0,0" transform="translate(-94.935 -3.796)"/><path class="g" d="M39.031,180.723a20.194,20.194,0,0,1-14.852-6.544L2.126,150.093a8.106,8.106,0,0,1,.221-11.179,7.686,7.686,0,0,1,5.86-2.39,7.947,7.947,0,0,1,5.756,2.6L36.282,163.5a20.353,20.353,0,0,1,5.349,13.78v.843a2.6,2.6,0,0,1-2.6,2.6ZM6.039,142.561a2.915,2.915,0,0,0-.079,4.019l22.056,24.091a15,15,0,0,0,8.281,4.607,15.163,15.163,0,0,0-3.851-8.255L10.14,142.644a2.809,2.809,0,0,0-2.039-.921,2.548,2.548,0,0,0-2.061.838Zm0,0" transform="translate(0.001 -94.924)"/><path class="g" d="M7.894,155.142H7.842a2.6,2.6,0,0,1-1.867-.845l-3.848-4.2a8.106,8.106,0,0,1,.221-11.179,7.687,7.687,0,0,1,5.86-2.39,7.947,7.947,0,0,1,5.756,2.6l3.555,3.9a2.6,2.6,0,0,1-.073,3.587L9.74,154.372a2.6,2.6,0,0,1-1.846.77Zm.15-13.419a2.807,2.807,0,0,0-2,.838,2.915,2.915,0,0,0-.079,4.019l2.008,2.195L12.01,144.7l-1.87-2.057a2.816,2.816,0,0,0-2.039-.924Zm0,0" transform="translate(0 -94.924)"/><path class="g" d="M124.669,272.242a2.6,2.6,0,0,1-1.846-.78l-2.568-2.6a2.6,2.6,0,1,1,3.692-3.661l2.568,2.6a2.6,2.6,0,0,1-1.846,4.441Zm0,0" transform="translate(-83.069 -183.843)"/></g></g><g transform="translate(1034.476 1802.217)"><path class="g" d="M27.393,9H19V32.08h4.2V23.268l6.647,9.971,3.491-2.329-6.219-9.32h.277A6.295,6.295,0,1,0,27.393,9Zm0,8.393H23.2V13.2h4.2a2.1,2.1,0,0,1,0,4.2Z" transform="translate(-19 -7.873)"/><path class="g" d="M40.843,33.8l3.542-2.253L37.759,21.13l6.626-10.413L40.843,8.463,35.27,17.221,29.7,8.463l-3.542,2.253L32.782,21.13,26.156,31.543,29.7,33.8l5.573-8.758Z" transform="translate(-11.142 -8.463)"/></g></g></g></svg>