<svg xmlns="http://www.w3.org/2000/svg" width="23.025" height="23.025" viewBox="0 0 23.025 23.025"><defs><style>.a{fill:#75c7fe;}.b{fill:#ff6464;}</style></defs><g transform="translate(-909 -1262)"><path class="a" d="M17017.525,1279.8h8.926a15.88,15.88,0,0,1-2.139,2.324c-.371.093-2.418.558-2.418.558l-2.418-.558Z" transform="translate(-16101.087 -4.039)"/><g transform="translate(909 1262)"><path d="M149.6,293.553a5.317,5.317,0,0,0,4.967-3.442.675.675,0,0,0-.632-.912h-8.67a.675.675,0,0,0-.632.912,5.315,5.315,0,0,0,4.967,3.442Zm3.216-3a3.952,3.952,0,0,1-6.432,0Zm0,0" transform="translate(-138.085 -276.194)"/><path d="M100.161,95.6a.675.675,0,1,0,1.043-.856,3.026,3.026,0,0,0-4.649,0,.674.674,0,0,0-.157.432h0a.675.675,0,0,0,1.2.427,1.677,1.677,0,0,1,2.566,0Zm0,0" transform="translate(-92.064 -89.441)"/><path d="M309.028,95.6a.675.675,0,1,0,1.043-.856,3.026,3.026,0,0,0-4.649,0,.674.674,0,0,0-.157.432h0a.675.675,0,0,0,1.2.427,1.677,1.677,0,0,1,2.566,0Zm0,0" transform="translate(-291.538 -89.441)"/><path d="M65.24,6.183a4.267,4.267,0,0,1,2.626-.395l2.742.457a.675.675,0,0,0,.222-1.331l-2.742-.457a5.609,5.609,0,0,0-3.451.519.675.675,0,0,0,.6,1.207Zm0,0" transform="translate(-61.373 -4.182)"/><path d="M290,6.244l2.742-.457a4.266,4.266,0,0,1,2.626.395.675.675,0,1,0,.6-1.207,5.608,5.608,0,0,0-3.451-.519l-2.742.457A.675.675,0,0,0,290,6.244Zm0,0" transform="translate(-276.213 -4.181)"/><path d="M22.351,0a.675.675,0,0,0-.675.675V9.191A10.163,10.163,0,0,1,18.7,16.377l-3.963,3.964a4.559,4.559,0,0,1-6.446,0L4.326,16.377A10.163,10.163,0,0,1,1.349,9.191V.675A.675.675,0,0,0,0,.675V9.191a11.512,11.512,0,0,0,3.372,8.141l3.963,3.963a5.908,5.908,0,0,0,8.354,0l3.964-3.963a11.513,11.513,0,0,0,3.372-8.141V.675A.675.675,0,0,0,22.351,0Zm0,0" transform="translate(0)"/></g><g transform="translate(0 -1)"><rect class="b" width="1" height="3" rx="0.5" transform="translate(918 1272)"/><rect class="b" width="1" height="3" rx="0.5" transform="translate(920 1272)"/><rect class="b" width="1" height="3" rx="0.5" transform="translate(922 1272)"/></g></g></svg>