<svg xmlns="http://www.w3.org/2000/svg" width="19.409" height="24" viewBox="0 0 19.409 24"><defs><style>.a{fill:#75c7fe;}.b{fill:#ff6464;}.c{fill:#284055;}</style></defs><g transform="translate(-46 -1282.75)"><path class="a" d="M17712.563,1287.36v2.88l1.168,4.8,1.172,3.68.879,1.92h-16.543l1.027-1.92,1.9-3.68,1.023-3.04v-4.64Z" transform="translate(-17651.998 -3)"/><g transform="translate(46 1282.75)"><path class="b" d="M17744.518,1303.517l1.973.511h1.605l.949-.511.8.511.453,1.6-.781,1.191-1.232,1.383-2.143.648.6.31-2.225-2.069-.8-1.607-.367-.8Z" transform="translate(-17737.156 -1290.109)"/><g transform="translate(0)"><path class="c" d="M50.84,24H66.611a15.541,15.541,0,0,0,1.757-6.281,12.592,12.592,0,0,0-1.387-6.125L65.5,8.632a17.687,17.687,0,0,1-.956-2.309,7,7,0,0,1,.374-5.306L65.426,0H51.911l.509,1.018a7.043,7.043,0,0,1,.454,5.059,17.69,17.69,0,0,1-1.036,2.555l-1.481,2.963a12.115,12.115,0,0,0-1.377,6.091A15.976,15.976,0,0,0,50.84,24Zm7.823-5.494-.5-.426c-1.517-1.275-2.308-1.979-2.308-2.8a1.1,1.1,0,0,1,1.068-1.169c.674,0,.977.716,1.054.935l.165.471h1.052l.165-.471c.077-.219.38-.935,1.054-.935a1.1,1.1,0,0,1,1.068,1.169c0,.866-.99,1.7-2.36,2.847l-.452.381Zm-7.05-6.282,1.481-2.963a19.1,19.1,0,0,0,1.122-2.767l0-.015A8.492,8.492,0,0,0,54.1,1.406h9.132a8.43,8.43,0,0,0-.025,5.362,19.1,19.1,0,0,0,1.033,2.493l1.481,2.963a11.4,11.4,0,0,1,0,10.37H59.366v-2.84c.223-.191.441-.374.653-.552,1.6-1.342,2.862-2.4,2.862-3.924A2.5,2.5,0,0,0,60.408,12.7a2.307,2.307,0,0,0-1.744.794,2.307,2.307,0,0,0-1.744-.794,2.5,2.5,0,0,0-2.474,2.575c0,1.516,1.178,2.507,2.809,3.878.228.192.462.389.706.6v2.84H51.72C49.957,18.809,49.928,15.595,51.614,12.223Z" transform="translate(-48.966)"/><path class="c" d="M240.835,211h1.518v1.518h-1.518Z" transform="translate(-231.897 -201.158)"/></g></g></g></svg>