<svg xmlns="http://www.w3.org/2000/svg" width="24.996" height="15.831" viewBox="0 0 24.996 15.831"><defs><style>.a{fill:#75c7fe;}.b{fill:#ff6464;}.c{fill:#284055;}</style></defs><g transform="translate(-911 -718)"><circle class="a" cx="1.5" cy="1.5" r="1.5" transform="translate(927 724)"/><circle class="a" cx="1.5" cy="1.5" r="1.5" transform="translate(917 724)"/><circle class="a" cx="1.5" cy="1.5" r="1.5" transform="translate(913 727)"/><path class="b" d="M18997.387,723.925l-.949.75-.9.5s.449.1,0,.45-1.3.9-1.3.9l-.5.95-1,.45h-.951l-.65-.45v-.95l-1.424-.506-.676-1.344-1.6-.75Z" transform="translate(-18069 -3)"/><path class="b" d="M18997.387,723.925l-.949.75-.9.5s.449.1,0,.45-1.3.9-1.3.9l-.5.95-1,.45h-.951l-.65-.45-.52-.566-1.187-.763-.393-1.472-1.6-.75Z" transform="translate(19915.824 1454.85) rotate(180)"/><g transform="translate(895 614)"><path class="c" d="M40.163,230.666h-6.3a1.633,1.633,0,0,0-1.553-1.25,1.646,1.646,0,0,0-1.6-1.666,1.646,1.646,0,0,0-1.62-1.666H27.912a1.646,1.646,0,0,0-1.62,1.666,1.646,1.646,0,0,0-1.6,1.666,1.633,1.633,0,0,0-1.553,1.25h-6.3V224H16v9.165a.417.417,0,0,0,.417.417H40.579a.417.417,0,0,0,.417-.417v-3.333h-.833Zm-15.46-.417h.04a.737.737,0,0,0,.779-.78q0-.027,0-.054a.812.812,0,0,1,.787-.833h.04a.739.739,0,0,0,.78-.782q0-.026,0-.052a.812.812,0,0,1,.787-.833h1.173a.812.812,0,0,1,.787.833q0,.026,0,.052a.739.739,0,0,0,.78.782h.04a.812.812,0,0,1,.787.833c0,.018,0,.036,0,.053a.737.737,0,0,0,.779.781h.04a.781.781,0,0,1,.681.417H24.021a.781.781,0,0,1,.681-.417Zm-7.869,2.5V231.5h23.33v1.25Z" transform="translate(0 -113.751)"/><path class="c" d="M314.083,216a1.708,1.708,0,1,0,2.083,1.666A1.912,1.912,0,0,0,314.083,216Zm0,2.5c-.677,0-1.25-.382-1.25-.833s.572-.833,1.25-.833,1.25.382,1.25.833S314.76,218.5,314.083,218.5Z" transform="translate(-280.586 -106.168)"/><path class="c" d="M120.088,217.067a1.537,1.537,0,0,0,.236,1.362,2.387,2.387,0,0,0,1.213.878,2.561,2.561,0,0,0,.808.134,2.181,2.181,0,0,0,.689-.108,1.458,1.458,0,0,0,.77-2.309,2.5,2.5,0,0,0-2.657-.92l.241.8a1.67,1.67,0,0,1,1.731.6.632.632,0,0,1-.348,1.044,1.665,1.665,0,0,1-1.761-.587.727.727,0,0,1-.131-.624Z" transform="translate(-98.602 -106.179)"/><path class="c" d="M48,273.666A2.135,2.135,0,1,0,50.083,272,1.912,1.912,0,0,0,48,273.666Zm2.083-.833c.677,0,1.25.382,1.25.833s-.572.833-1.25.833-1.25-.382-1.25-.833S49.405,272.833,50.083,272.833Z" transform="translate(-30.334 -159.251)"/><circle class="c" cx="1" cy="1" r="1" transform="translate(18.133 109.551)"/><circle class="c" cx="1" cy="1" r="1" transform="translate(35.133 113.551)"/><path class="c" d="M112,184h.833v.833H112Z" transform="translate(-91.001 -75.834)"/><path class="c" d="M392,184h.833v.833H392Z" transform="translate(-356.42 -75.834)"/><path class="c" d="M440,216h.833v.833H440Z" transform="translate(-401.92 -106.168)"/><path class="c" d="M144,296h.833v.833H144Z" transform="translate(-121.334 -182.002)"/><path class="c" d="M40.579,104H22.1v.833H40.163v1.25H16.833v-1.25H21V104H16.417a.417.417,0,0,0-.417.417v4.415a.417.417,0,0,0,.251.382,2.529,2.529,0,0,0,1,.2,1.912,1.912,0,0,0,2.083-1.666,1.412,1.412,0,0,0-.28-.833H32.974a.78.78,0,0,1-.68.417h-.04a.744.744,0,0,0-.567.218.737.737,0,0,0-.212.562q0,.027,0,.054a.812.812,0,0,1-.787.833h-.04a.739.739,0,0,0-.78.782q0,.026,0,.052a.812.812,0,0,1-.787.833H27.912a.812.812,0,0,1-.787-.833q0-.026,0-.052a.739.739,0,0,0-.78-.782h-.04a.812.812,0,0,1-.787-.833c0-.018,0-.036,0-.053a.737.737,0,0,0-.212-.563.745.745,0,0,0-.568-.218.764.764,0,0,1-.549-.2l-.557.62a1.593,1.593,0,0,0,1.05.411,1.646,1.646,0,0,0,1.6,1.666,1.646,1.646,0,0,0,1.62,1.666h1.173a1.646,1.646,0,0,0,1.62-1.666,1.646,1.646,0,0,0,1.6-1.666,1.633,1.633,0,0,0,1.553-1.25h6.3v4.616a2.616,2.616,0,0,0-.417-.034,1.708,1.708,0,1,0,0,3.333,2.616,2.616,0,0,0,.417-.034v.451H41V104.417A.417.417,0,0,0,40.579,104ZM18.5,107.749c0,.452-.572.833-1.25.833a1.762,1.762,0,0,1-.417-.049v-1.567a1.763,1.763,0,0,1,.417-.05C17.927,106.916,18.5,107.3,18.5,107.749ZM39.746,114c-.677,0-1.25-.382-1.25-.833s.572-.833,1.25-.833a1.762,1.762,0,0,1,.417.05v1.567A1.762,1.762,0,0,1,39.746,114Z"/><path class="c" d="M240,305.25h.833a.417.417,0,0,1,.417-.417V304A1.251,1.251,0,0,0,240,305.25Z" transform="translate(-212.335 -189.585)"/><path class="c" d="M265.25,176h-.833a.417.417,0,0,1-.417.417v.833A1.251,1.251,0,0,0,265.25,176Z" transform="translate(-235.085 -68.251)"/></g></g></svg>