<svg xmlns="http://www.w3.org/2000/svg" width="106.916" height="124" viewBox="0 0 106.916 124"><defs><style>.a{fill:#e3e7f2;}.b{fill:#a4c2f7;}.c,.g{fill:none;}.d{fill:#428dff;}.e{fill:#fff;}.f{fill:#acffbf;}.g{stroke:#428dff;stroke-width:2px;}</style></defs><g transform="translate(-655 -2867)"><path class="a" d="M4.133,0h7.2s-3.491,7.109,7.35,7.109H48.111C58.465,7.109,52.752,0,52.752,0H67.167A4.133,4.133,0,0,1,71.3,4.133V93a4.133,4.133,0,0,1-4.133,4.133H4.133A4.133,4.133,0,0,1,0,93V4.133A4.133,4.133,0,0,1,4.133,0Z" transform="translate(663.267 2887.269)"/><path class="b" d="M81.4,106.439a4.137,4.137,0,0,0,4.112-4.138V7.138A4.137,4.137,0,0,0,81.4,3H30a4.137,4.137,0,0,1,4.112,4.138,4.156,4.156,0,0,0,4.112,4.138H69.065a4.137,4.137,0,0,1,4.112,4.138v91.027Z" transform="translate(674.346 2866.056)"/><path class="c" d="M7,109.691a4.124,4.124,0,0,0,4.112,4.112H81.018a4.124,4.124,0,0,0,4.112-4.112V15.112A4.124,4.124,0,0,0,81.018,11H66.626v4.112a4.124,4.124,0,0,1-4.112,4.112h-32.9A4.124,4.124,0,0,1,25.5,15.112V11H11.112A4.124,4.124,0,0,0,7,15.112ZM19.336,31.561H35.785V48.009H19.336Zm0,28.785H35.785V76.794H19.336Z" transform="translate(650.056 2875.141)"/><g transform="translate(655 2867)"><path class="d" d="M106.747,2H77.962V6.133h28.785A2.061,2.061,0,0,1,108.8,8.2v95.067a2.061,2.061,0,0,1-2.056,2.067h-6.168V16.467a6.184,6.184,0,0,0-6.168-6.2H73.85V14.4H94.411a2.061,2.061,0,0,1,2.056,2.067v95.067a2.061,2.061,0,0,1-2.056,2.067H88.243V24.733a6.184,6.184,0,0,0-6.168-6.2H69.738V16.467a6.184,6.184,0,0,0-6.168-6.2A2.061,2.061,0,0,1,61.514,8.2,6.184,6.184,0,0,0,55.346,2H38.9a6.184,6.184,0,0,0-6.168,6.2,2.061,2.061,0,0,1-2.056,2.067,6.184,6.184,0,0,0-6.168,6.2v2.067H12.168A6.184,6.184,0,0,0,6,24.733V119.8a6.184,6.184,0,0,0,6.168,6.2H82.075a6.184,6.184,0,0,0,6.168-6.2v-2.067h6.168a6.184,6.184,0,0,0,6.168-6.2v-2.067h6.168a6.184,6.184,0,0,0,6.168-6.2V8.2A6.184,6.184,0,0,0,106.747,2ZM28.617,16.467A2.061,2.061,0,0,1,30.673,14.4a6.184,6.184,0,0,0,6.168-6.2A2.061,2.061,0,0,1,38.9,6.133H55.346A2.061,2.061,0,0,1,57.4,8.2a6.184,6.184,0,0,0,6.168,6.2,2.061,2.061,0,0,1,2.056,2.067v8.267A2.061,2.061,0,0,1,63.57,26.8h-32.9a2.061,2.061,0,0,1-2.056-2.067ZM84.131,119.8a2.061,2.061,0,0,1-2.056,2.067H12.168a2.061,2.061,0,0,1-2.056-2.067V24.733a2.061,2.061,0,0,1,2.056-2.067H24.5v2.067a6.184,6.184,0,0,0,6.168,6.2h32.9a6.184,6.184,0,0,0,6.168-6.2V22.667H82.075a2.061,2.061,0,0,1,2.056,2.067Z" transform="translate(-6 -2)"/><path class="d" d="M23,6H35.336v4.112H23Z" transform="translate(11.953 2.224)"/><path class="d" d="M14.056,40.561H30.5A2.056,2.056,0,0,0,32.561,38.5V22.056A2.056,2.056,0,0,0,30.5,20H14.056A2.056,2.056,0,0,0,12,22.056V38.5A2.056,2.056,0,0,0,14.056,40.561Zm2.056-16.449H28.449V36.449H16.112Z" transform="translate(0.336 17.238)"/><path class="d" d="M14.056,54.561H30.5A2.056,2.056,0,0,0,32.561,52.5V36.056A2.056,2.056,0,0,0,30.5,34H14.056A2.056,2.056,0,0,0,12,36.056V52.5A2.056,2.056,0,0,0,14.056,54.561Zm2.056-16.449H28.449V50.449H16.112Z" transform="translate(0.336 32.201)"/><path class="d" d="M12,48H69.57v4.112H12Z" transform="translate(0.336 47.083)"/><path class="d" d="M12,54H69.57v4.112H12Z" transform="translate(0.336 53.551)"/><path class="d" d="M26,21h8.224v4.112H26Z" transform="translate(15.121 18.274)"/><path class="d" d="M32,21H48.449v4.112H32Z" transform="translate(21.458 18.274)"/><path class="d" d="M26,27h8.224v4.112H26Z" transform="translate(15.121 24.676)"/><path class="d" d="M32,27H48.449v4.112H32Z" transform="translate(21.458 24.676)"/><path class="d" d="M26,35h8.224v4.112H26Z" transform="translate(15.121 33.212)"/><path class="d" d="M32,35H48.449v4.112H32Z" transform="translate(21.458 33.212)"/><path class="d" d="M26,41h8.224v4.112H26Z" transform="translate(15.121 39.614)"/><path class="d" d="M32,41H48.449v4.112H32Z" transform="translate(21.458 39.614)"/></g><rect class="e" width="12.4" height="13.433" transform="translate(671.533 2907.533)"/><rect class="e" width="12.4" height="13.433" transform="translate(671.533 2936.634)"/><g transform="translate(673.6 2902.754)"><path class="f" d="M6.724,13.584a.9.9,0,0,1-1.268,0L.394,8.521a1.344,1.344,0,0,1,0-1.9l.634-.634a1.344,1.344,0,0,1,1.9,0L6.09,9.146,15.979-.142a1.344,1.344,0,0,1,1.9,0l.634.634a1.344,1.344,0,0,1,0,1.9Zm0,0" transform="translate(0.794 1.261)"/><path class="g" d="M7.842,16a1.045,1.045,0,0,1-1.478,0L.46,10.1a1.568,1.568,0,0,1,0-2.218L1.2,7.14a1.568,1.568,0,0,1,2.218,0L7.1,10.826l9.96-9.96a1.568,1.568,0,0,1,2.218,0l.739.739a1.568,1.568,0,0,1,0,2.218Zm0,0" transform="translate(0 -0.406)"/></g><g transform="translate(673.6 2931.858)"><path class="f" d="M6.724,13.584a.9.9,0,0,1-1.268,0L.394,8.521a1.344,1.344,0,0,1,0-1.9l.634-.634a1.344,1.344,0,0,1,1.9,0L6.09,9.146,15.979-.142a1.344,1.344,0,0,1,1.9,0l.634.634a1.344,1.344,0,0,1,0,1.9Zm0,0" transform="translate(0.794 1.261)"/><path class="g" d="M7.842,16a1.045,1.045,0,0,1-1.478,0L.46,10.1a1.568,1.568,0,0,1,0-2.218L1.2,7.14a1.568,1.568,0,0,1,2.218,0L7.1,10.826l9.96-9.96a1.568,1.568,0,0,1,2.218,0l.739.739a1.568,1.568,0,0,1,0,2.218Zm0,0" transform="translate(0 -0.406)"/></g></g></svg>