<svg xmlns="http://www.w3.org/2000/svg" width="181.627" height="43.827" viewBox="0 0 181.627 43.827"><defs><style>.a{fill:#1a3650;letter-spacing:-0.059em;}.a,.b{font-size:31px;font-family:SegoeUI-Bold, Segoe UI;font-weight:700;}.b,.c{fill:#15d828;}.b{letter-spacing:-0.048em;}</style></defs><g transform="translate(-113 -28.173)"><text class="a" transform="translate(166 64)"><tspan x="0" y="0">DOKTOR</tspan></text><text class="b" transform="translate(113 64)"><tspan x="0" y="0">365</tspan></text><g transform="translate(279 28.17)"><g transform="translate(0 0.003)"><path class="c" d="M14.593,5.576H10.054V1.037A1.034,1.034,0,0,0,9.02,0H6.607A1.034,1.034,0,0,0,5.573,1.037V5.576H1.034A1.034,1.034,0,0,0,0,6.61V9.023a1.034,1.034,0,0,0,1.034,1.034H5.573V14.6A1.034,1.034,0,0,0,6.607,15.63H9.02A1.034,1.034,0,0,0,10.054,14.6V10.057h4.539a1.034,1.034,0,0,0,1.034-1.034V6.61A1.034,1.034,0,0,0,14.593,5.576Z" transform="translate(0 -0.003)"/></g></g></g></svg>