<svg xmlns="http://www.w3.org/2000/svg" width="246" height="246" viewBox="0 0 246 246"><defs><style>.a{fill:#f2fafe;}.b{fill:#e3e7f2;}.c{fill:#a4c2f7;}.d,.h{fill:none;}.e{fill:#428dff;}.f{fill:#fff;}.g{fill:#acffbf;}.h{stroke:#428dff;stroke-width:2px;}</style></defs><g transform="translate(-270 -1499)"><circle class="a" cx="123" cy="123" r="123" transform="translate(270 1499)"/><g transform="translate(-324 -1317)"><path class="b" d="M4.828,0h8.409S9.159,8.3,21.822,8.3H56.195C68.289,8.3,61.615,0,61.615,0H78.453a4.828,4.828,0,0,1,4.828,4.828v103.8a4.828,4.828,0,0,1-4.828,4.828H4.828A4.828,4.828,0,0,1,0,108.627V4.828A4.828,4.828,0,0,1,4.828,0Z" transform="translate(664.656 2890.675)"/><path class="c" d="M90.039,123.82a4.832,4.832,0,0,0,4.8-4.833V7.833A4.832,4.832,0,0,0,90.039,3H30a4.832,4.832,0,0,1,4.8,4.833,4.854,4.854,0,0,0,4.8,4.833H75.629a4.832,4.832,0,0,1,4.8,4.833V123.82Z" transform="translate(682.637 2866.402)"/><path class="d" d="M7,126.274a4.818,4.818,0,0,0,4.8,4.8H93.456a4.818,4.818,0,0,0,4.8-4.8V15.8a4.818,4.818,0,0,0-4.8-4.8H76.645v4.8a4.818,4.818,0,0,1-4.8,4.8H33.417a4.818,4.818,0,0,1-4.8-4.8V11H11.8A4.818,4.818,0,0,0,7,15.8ZM21.409,35.016H40.622V54.228H21.409Zm0,33.622H40.622V87.85H21.409Z" transform="translate(650.402 2878.357)"/><g transform="translate(655 2867)"><path class="e" d="M123.676,2H90.054V6.828h33.622a2.408,2.408,0,0,1,2.4,2.414V120.283a2.408,2.408,0,0,1-2.4,2.414h-7.2V18.9a7.223,7.223,0,0,0-7.2-7.242H85.251v4.828h24.016a2.408,2.408,0,0,1,2.4,2.414V129.938a2.408,2.408,0,0,1-2.4,2.414h-7.2V28.553a7.223,7.223,0,0,0-7.2-7.242H80.448V18.9a7.223,7.223,0,0,0-7.2-7.242,2.408,2.408,0,0,1-2.4-2.414A7.223,7.223,0,0,0,63.637,2H44.425a7.223,7.223,0,0,0-7.2,7.242,2.408,2.408,0,0,1-2.4,2.414,7.223,7.223,0,0,0-7.2,7.242v2.414H13.2A7.223,7.223,0,0,0,6,28.553V139.594a7.223,7.223,0,0,0,7.2,7.242H94.857a7.223,7.223,0,0,0,7.2-7.242V137.18h7.2a7.223,7.223,0,0,0,7.2-7.242v-2.414h7.2a7.223,7.223,0,0,0,7.2-7.242V9.242A7.223,7.223,0,0,0,123.676,2ZM32.417,18.9a2.408,2.408,0,0,1,2.4-2.414,7.223,7.223,0,0,0,7.2-7.242,2.408,2.408,0,0,1,2.4-2.414H63.637a2.408,2.408,0,0,1,2.4,2.414,7.223,7.223,0,0,0,7.2,7.242,2.408,2.408,0,0,1,2.4,2.414v9.656a2.408,2.408,0,0,1-2.4,2.414H34.819a2.408,2.408,0,0,1-2.4-2.414Zm64.842,120.7a2.408,2.408,0,0,1-2.4,2.414H13.2a2.408,2.408,0,0,1-2.4-2.414V28.553a2.408,2.408,0,0,1,2.4-2.414H27.614v2.414a7.223,7.223,0,0,0,7.2,7.242H73.243a7.223,7.223,0,0,0,7.2-7.242V26.139H94.857a2.408,2.408,0,0,1,2.4,2.414Z" transform="translate(-6 -2)"/><path class="e" d="M23,6H37.409v4.8H23Z" transform="translate(17.826 3.606)"/><path class="e" d="M14.4,44.016H33.614a2.4,2.4,0,0,0,2.4-2.4V22.4a2.4,2.4,0,0,0-2.4-2.4H14.4A2.4,2.4,0,0,0,12,22.4V41.614A2.4,2.4,0,0,0,14.4,44.016ZM16.8,24.8H31.212V39.212H16.8Z" transform="translate(2.409 23.495)"/><path class="e" d="M14.4,58.016H33.614a2.4,2.4,0,0,0,2.4-2.4V36.4a2.4,2.4,0,0,0-2.4-2.4H14.4A2.4,2.4,0,0,0,12,36.4V55.614A2.4,2.4,0,0,0,14.4,58.016ZM16.8,38.8H31.212V53.212H16.8Z" transform="translate(2.409 43.325)"/><path class="e" d="M12,48H79.243v4.8H12Z" transform="translate(2.409 63.06)"/><path class="e" d="M12,54H79.243v4.8H12Z" transform="translate(2.409 71.623)"/><path class="e" d="M26,21h9.606v4.8H26Z" transform="translate(22.031 24.873)"/><path class="e" d="M32,21H51.212v4.8H32Z" transform="translate(30.44 24.873)"/><path class="e" d="M26,27h9.606v4.8H26Z" transform="translate(22.031 33.359)"/><path class="e" d="M32,27H51.212v4.8H32Z" transform="translate(30.44 33.359)"/><path class="e" d="M26,35h9.606v4.8H26Z" transform="translate(22.031 44.674)"/><path class="e" d="M32,35H51.212v4.8H32Z" transform="translate(30.44 44.674)"/><path class="e" d="M26,41h9.606v4.8H26Z" transform="translate(22.031 53.16)"/><path class="e" d="M32,41H51.212v4.8H32Z" transform="translate(30.44 53.16)"/></g><rect class="f" width="14.484" height="15.691" transform="translate(674.311 2914.344)"/><rect class="f" width="14.484" height="15.691" transform="translate(674.311 2948.335)"/><g transform="translate(676.725 2908.761)"><path class="g" d="M7.853,15.956a1.047,1.047,0,0,1-1.481,0L.46,10.043a1.57,1.57,0,0,1,0-2.221l.74-.741a1.57,1.57,0,0,1,2.221,0l3.691,3.692L18.664-.076a1.57,1.57,0,0,1,2.221,0l.74.741a1.57,1.57,0,0,1,0,2.221Zm0,0" transform="translate(0.927 1.383)"/><path class="h" d="M9.159,18.622a1.221,1.221,0,0,1-1.727,0l-6.9-6.9a1.831,1.831,0,0,1,0-2.59L1.4,8.271a1.831,1.831,0,0,1,2.591,0L8.3,12.576,19.929.943a1.831,1.831,0,0,1,2.591,0l.863.864a1.831,1.831,0,0,1,0,2.59Zm0,0" transform="translate(0 -0.406)"/></g><g transform="translate(676.725 2942.757)"><path class="g" d="M7.853,15.956a1.047,1.047,0,0,1-1.481,0L.46,10.043a1.57,1.57,0,0,1,0-2.221l.74-.741a1.57,1.57,0,0,1,2.221,0l3.691,3.692L18.664-.076a1.57,1.57,0,0,1,2.221,0l.74.741a1.57,1.57,0,0,1,0,2.221Zm0,0" transform="translate(0.927 1.383)"/><path class="h" d="M9.159,18.622a1.221,1.221,0,0,1-1.727,0l-6.9-6.9a1.831,1.831,0,0,1,0-2.59L1.4,8.271a1.831,1.831,0,0,1,2.591,0L8.3,12.576,19.929.943a1.831,1.831,0,0,1,2.591,0l.863.864a1.831,1.831,0,0,1,0,2.59Zm0,0" transform="translate(0 -0.406)"/></g></g></g></svg>