<svg xmlns="http://www.w3.org/2000/svg" width="124.001" height="124" viewBox="0 0 124.001 124"><defs><style>.a{fill:#a4c2f7;}.b{fill:#d4e1f4;}.c{fill:#acffbf;}.d{fill:#e3e7f2;}.e{fill:#fff;}.f{fill:#428dff;}</style></defs><g transform="translate(0.001 -0.003)"><path class="a" d="M181.2,33.335V74.9c-1.281-.124-2.645-.228-4.133-.228-.7,0-1.4.021-2.066.062a5.073,5.073,0,0,0-.972.082h-.062c-19.634,1.612-19.737,18.952-21.7,28.789-2.067,10.334-10.168,24.8-16.533,24.8H115.066a4.145,4.145,0,0,1-4.133-4.133V12.668a4.146,4.146,0,0,1,4.133-4.133H156.4Zm0,0" transform="translate(-84.067 -6.465)"/><path class="b" d="M175,33.335V74.9c-.331-.021-.64-.062-.972-.083h-.061c-.972-.082-2-.145-3.1-.145-22.733,0-22.733,18.6-24.8,28.934s-10.168,24.8-16.533,24.8H115.067a4.145,4.145,0,0,1-4.133-4.133V12.668a4.146,4.146,0,0,1,4.133-4.133H150.2Zm0,0" transform="translate(-84.068 -6.465)"/><path class="a" d="M306.935,33.336h16.533l-24.8-24.8V25.07a8.266,8.266,0,0,0,8.267,8.266Zm0,0" transform="translate(-226.336 -6.466)"/><path class="a" d="M283.6,314.667a14.276,14.276,0,0,1-.1,1.633v.021a12.415,12.415,0,0,1-2.563,6.344c-2.645,3.493-7.233,6.035-13.186,7.895-1.281.393-2.645.764-4.071,1.116a115.155,115.155,0,0,1-13.826,2.232c-1.343.145-2.727.289-4.112.393-7.853.661-16.491.93-25.44,1.012-2.294.021-4.63.021-6.965.021a.536.536,0,0,0,.185-.021,10.576,10.576,0,0,0,6.7-4.381,48.979,48.979,0,0,0,8.205-15.148,42.708,42.708,0,0,0,1.239-4.3c.083-.331.145-.64.207-.951.909-4.588,1.426-10.829,3.7-16.327A24.1,24.1,0,0,1,235.7,290.2c2.935-4.4,7.688-7.771,15.769-8.453.062,0,.124-.02.207-.02.951-.083,1.963-.125,3-.125a36.783,36.783,0,0,1,5.952.455h.021c11.8,1.881,14.218,9.4,14.652,13.454a2.666,2.666,0,0,0,.145.682,5.444,5.444,0,0,0,2.232,3.142c.062.041.1.082.166.124,2.418,1.839,5.766,6.014,5.766,15.21Zm0,0" transform="translate(-161.67 -213.398)"/><path class="c" d="M277.982,315.06a14.064,14.064,0,0,1-.1,1.633v.021a12.407,12.407,0,0,1-2.563,6.344c-2.645,3.493-7.233,6.035-13.185,7.895-1.282.393-2.645.764-4.072,1.116a115.14,115.14,0,0,1-13.825,2.232c-1.343.145-2.728.289-4.112.393-7.854.661-16.492.93-25.441,1.012H214.1a10.576,10.576,0,0,0,6.7-4.381A48.978,48.978,0,0,0,229,316.176a42.708,42.708,0,0,0,1.239-4.3c.083-.331.145-.64.207-.951.909-4.588,1.426-10.829,3.7-16.327a24.1,24.1,0,0,1,2.129-4.009c2.935-4.4,7.688-7.771,15.769-8.453.062,0,.124-.02.207-.02.971.082,1.881.185,2.748.33h.021c11.8,1.881,14.219,9.4,14.652,13.454a2.705,2.705,0,0,0,.145.682,5.45,5.45,0,0,0,2.233,3.142c.061.041.1.082.165.124,2.418,1.839,5.766,6.014,5.766,15.21Zm0,0" transform="translate(-162.25 -213.79)"/><path class="a" d="M9.8,146.345a4.394,4.394,0,0,0-.12,6.047L27.214,171.54a13.936,13.936,0,0,0,10.275,4.528V175.4a14.155,14.155,0,0,0-3.709-9.564L16.043,146.471a4.3,4.3,0,0,0-6.241-.126Zm0,0" transform="translate(-6.469 -109.931)"/><path class="d" d="M16.043,146.47a4.3,4.3,0,0,0-6.241-.126,4.394,4.394,0,0,0-.12,6.047l3.061,3.341,6.126-6.175Zm0,0" transform="translate(-6.469 -109.931)"/><path class="e" d="M110.934,12.668V55.12l6.2,6.773V12.668a4.146,4.146,0,0,1,4.133-4.133h-6.2a4.146,4.146,0,0,0-4.133,4.133Zm0,0" transform="translate(-84.068 -6.465)"/><path class="e" d="M39.533,227.75v-52.3a13.974,13.974,0,0,1-6.122-3.893L15.88,152.409A4.336,4.336,0,0,1,15,150.962a4.433,4.433,0,0,1-.207-.794,4.533,4.533,0,0,1-.064-.808,4.449,4.449,0,0,1,.335-1.6,4.334,4.334,0,0,1,.891-1.349,4.3,4.3,0,0,0-6.159-.054,4.383,4.383,0,0,0-.932,1.4,4.449,4.449,0,0,0-.335,1.6,4.537,4.537,0,0,0,.06.816,4.423,4.423,0,0,0,.207.793,4.356,4.356,0,0,0,.876,1.447l17.531,19.147a13.974,13.974,0,0,0,6.126,3.885v52.3a4.145,4.145,0,0,0,4.133,4.133h6.2a4.145,4.145,0,0,1-4.133-4.133Zm0,0" transform="translate(-6.466 -109.948)"/><path class="e" d="M239.555,503a4.44,4.44,0,0,0,.87-.124,4.775,4.775,0,0,1-.918.127h.047Zm0,0" transform="translate(-181.503 -381.08)"/><path class="e" d="M245.242,501.535a6.2,6.2,0,0,0,.62-.242A5.7,5.7,0,0,1,245.242,501.535Zm0,0" transform="translate(-185.848 -379.884)"/><path class="e" d="M102.4,366.407V328.058h4.133v38.349Zm0,0" transform="translate(-77.602 -248.604)"/><g transform="translate(-0.001 0.004)"><path class="f" d="M104.469,443.738A2.066,2.066,0,0,0,102.4,445.8v8.267h4.133V445.8a2.067,2.067,0,0,0-2.067-2.066Zm0,0" transform="translate(-77.602 -336.272)"/><path class="f" d="M106.536,328.059H102.4v13.549a2.067,2.067,0,0,0,4.133,0Zm0,0" transform="translate(-77.602 -248.608)"/><path class="f" d="M102.4,411.669a2.171,2.171,0,0,0,.6,1.467l.31.248a1.572,1.572,0,0,0,.372.186,1.324,1.324,0,0,0,.372.124,3.2,3.2,0,0,0,.413.042,2.175,2.175,0,0,0,1.467-.6,2.138,2.138,0,0,0,.434-.682,2.109,2.109,0,0,0-.434-2.253,2.143,2.143,0,0,0-.682-.434,2.071,2.071,0,0,0-.785-.166,2.047,2.047,0,0,0-2.066,2.067Zm0,0" transform="translate(-77.601 -310.403)"/><path class="f" d="M317,28.938H300.466a10.346,10.346,0,0,1-10.334-10.333V2.072A2.067,2.067,0,0,1,293.66.611l24.8,24.8A2.067,2.067,0,0,1,317,28.938ZM294.267,7.061V18.606a6.2,6.2,0,0,0,6.2,6.2h11.544Zm0,0" transform="translate(-219.866 -0.006)"/><path class="f" d="M206.868,330.936a2.067,2.067,0,1,1,0-4.133c4.524,0,12.387-12.543,14.508-23.147.236-1.184.445-2.48.663-3.84,1.722-10.645,4.323-26.747,26.162-26.747,18.964,0,22.182,11.025,22.688,15.767A3.468,3.468,0,0,0,272.4,291.2c3.1,2.235,6.8,7,6.8,17.007,0,20.977-35.734,22.733-72.332,22.733ZM248.2,277.2c-18.318,0-20.406,12.909-22.081,23.283-.228,1.413-.445,2.759-.693,3.989a50.749,50.749,0,0,1-11,22.3c30.594-.277,60.641-2.709,60.641-18.567,0-8.694-3.182-12.286-5.079-13.652a7.606,7.606,0,0,1-3.212-5.278c-.478-4.508-3.53-12.07-18.576-12.07Zm0,0" transform="translate(-155.201 -206.937)"/><path class="f" d="M467.228,326.029a2.067,2.067,0,0,1-.764-3.987,13.178,13.178,0,0,0,6.126-5.166,2.067,2.067,0,1,1,3.7,1.848,17.251,17.251,0,0,1-8.3,7.162,2.071,2.071,0,0,1-.757.143Zm0,0" transform="translate(-352.506 -239.267)"/><path class="f" d="M129.268,124H108.6a6.2,6.2,0,0,1-6.2-6.2,2.067,2.067,0,0,1,4.133,0,2.067,2.067,0,0,0,2.066,2.067h20.667c4.524,0,12.387-12.543,14.508-23.147.236-1.184.445-2.48.663-3.84,1.722-10.645,4.323-26.747,26.162-26.747.684,0,1.364.019,2.067.056V27.725L149.079,4.137H108.6A2.066,2.066,0,0,0,106.535,6.2V43.4a2.067,2.067,0,1,1-4.133,0V6.2A6.2,6.2,0,0,1,108.6,0h41.333A2.064,2.064,0,0,1,151.4.609l24.8,24.8a2.066,2.066,0,0,1,.605,1.462V68.43a2.066,2.066,0,0,1-2.273,2.056,37.3,37.3,0,0,0-3.927-.217c-18.318,0-20.406,12.909-22.081,23.283-.228,1.413-.445,2.759-.693,3.989C145.721,108.077,137.243,124,129.268,124Zm0,0" transform="translate(-77.601 -0.004)"/><path class="f" d="M104.469,307.856a2.067,2.067,0,0,1-2.066-2.067v-5.051a2.067,2.067,0,0,1,4.133,0v5.051A2.067,2.067,0,0,1,104.469,307.856Zm0,0" transform="translate(-77.602 -226.339)"/><path class="f" d="M206.864,382.4a2.067,2.067,0,0,1-.544-4.061c.413-.112,40.847-11.385,61.954-36.616a2.067,2.067,0,1,1,3.172,2.651c-21.952,26.247-62.33,37.488-64.039,37.954a2.063,2.063,0,0,1-.543.073Zm0,0" transform="translate(-155.196 -258.4)"/><path class="f" d="M379.557,321.866a2.068,2.068,0,0,1-2.067-2c-.434-13.7-10.709-14.171-11.145-14.183a2.08,2.08,0,0,1-2.017-2.067c0-.122-.1-12.415-6.746-19A14.73,14.73,0,0,0,346.8,280.5h-.009a2.067,2.067,0,1,1-.014-4.133,18.882,18.882,0,0,1,13.735,5.332c6.264,6.218,7.6,16.074,7.88,20.115,4,.827,12.8,4.2,13.227,17.924a2.066,2.066,0,0,1-2,2.129Zm0,0" transform="translate(-261.232 -209.426)"/><path class="f" d="M322.581,365.747h-.192a2.066,2.066,0,0,1-1.86-2.249,14.213,14.213,0,0,0-6.7-14.1,2.077,2.077,0,0,1-1.094-1.459c-.161-.845-4.164-20.666-20.413-19.672a2.108,2.108,0,0,1-2.205-1.941,2.068,2.068,0,0,1,1.937-2.2c15.416-.942,22.63,13.53,24.544,22.114a18.308,18.308,0,0,1,8.033,17.624,2.066,2.066,0,0,1-2.052,1.877Zm0,0" transform="translate(-219.853 -245.6)"/><path class="f" d="M291.427,427.506a2.133,2.133,0,0,1-.258-.017,2.067,2.067,0,0,1-1.795-2.306c.827-6.688-3.132-9.188-3.306-9.3a2.126,2.126,0,0,1-.984-1.426,11.552,11.552,0,0,0-4.427-6.961,9.716,9.716,0,0,0-8.006-.55,2.067,2.067,0,0,1-1.143-3.972,13.62,13.62,0,0,1,11.367,1.034,15.177,15.177,0,0,1,6.091,8.886,13.434,13.434,0,0,1,4.514,12.813A2.067,2.067,0,0,1,291.427,427.506Zm0,0" transform="translate(-204.627 -304.784)"/><path class="f" d="M167.535,98H138.6a2.067,2.067,0,0,1,0-4.133h28.934a2.067,2.067,0,0,1,0,4.133Zm0,0" transform="translate(-103.468 -41.138)"/><path class="f" d="M167.535,311.337H138.6a2.067,2.067,0,0,1,0-4.133h28.934a2.067,2.067,0,0,1,0,4.133Zm0,0" transform="translate(-103.468 -232.804)"/><path class="f" d="M153.068,345.469H138.6a2.067,2.067,0,0,1,0-4.133h14.467a2.067,2.067,0,1,1,0,4.133Zm0,0" transform="translate(-103.468 -258.67)"/><path class="f" d="M163.4,379.6H138.6a2.067,2.067,0,0,1,0-4.133h24.8a2.067,2.067,0,0,1,0,4.133Zm0,0" transform="translate(-103.468 -284.536)"/><path class="f" d="M151,413.736H138.6a2.067,2.067,0,0,1,0-4.134H151a2.067,2.067,0,0,1,0,4.134Zm0,0" transform="translate(-103.468 -310.403)"/><path class="f" d="M159.268,447.872H138.6a2.067,2.067,0,0,1,0-4.133h20.667a2.067,2.067,0,0,1,0,4.133Zm0,0" transform="translate(-103.468 -336.272)"/><path class="f" d="M157.2,63.872H138.6a2.067,2.067,0,0,1,0-4.133h18.6a2.067,2.067,0,1,1,0,4.133Zm0,0" transform="translate(-103.468 -15.271)"/><path class="f" d="M31.025,171.655a16.052,16.052,0,0,1-11.806-5.2L1.69,147.308a6.443,6.443,0,0,1,.176-8.886,6.11,6.11,0,0,1,4.658-1.9,6.317,6.317,0,0,1,4.575,2.067l17.74,19.377a16.178,16.178,0,0,1,4.252,10.953v.67a2.066,2.066,0,0,1-2.066,2.066ZM4.8,141.322a2.317,2.317,0,0,0-.062,3.195l17.532,19.15a11.926,11.926,0,0,0,6.583,3.662,12.052,12.052,0,0,0-3.061-6.562L8.06,141.388a2.233,2.233,0,0,0-1.621-.732,2.026,2.026,0,0,0-1.639.666Zm0,0" transform="translate(0.001 -103.456)"/><path class="f" d="M6.275,151.322H6.233a2.07,2.07,0,0,1-1.484-.672L1.69,147.308a6.443,6.443,0,0,1,.176-8.886,6.11,6.11,0,0,1,4.658-1.9,6.317,6.317,0,0,1,4.575,2.067l2.826,3.1a2.067,2.067,0,0,1-.058,2.851L7.742,150.71a2.068,2.068,0,0,1-1.467.612Zm.119-10.667a2.231,2.231,0,0,0-1.593.666,2.317,2.317,0,0,0-.062,3.195l1.6,1.744,3.212-3.236L8.06,141.39a2.239,2.239,0,0,0-1.621-.734Zm0,0" transform="translate(0 -103.456)"/><path class="f" d="M123.6,270.633a2.064,2.064,0,0,1-1.467-.62l-2.042-2.067a2.067,2.067,0,1,1,2.935-2.91l2.042,2.067a2.067,2.067,0,0,1-1.467,3.53Zm0,0" transform="translate(-90.536 -200.367)"/></g></g></svg>