<svg xmlns="http://www.w3.org/2000/svg" width="33.547" height="25.3" viewBox="0 0 33.547 25.3"><defs><style>.a{fill:#75c7fe;}.b{fill:#fff;}.c{fill:#ff6464;}.d,.f{fill:#284055;}.e,.f{stroke:none;}</style></defs><g transform="translate(-46.7 -835)"><g class="a" transform="translate(48 584.09)"><path class="e" d="M 4.698846340179443 275.5604858398438 C 4.506155967712402 275.5604858398438 4.320765972137451 275.5020446777344 4.162725925445557 275.3914489746094 L -0.2507538497447968 272.3010559082031 C -0.4553538262844086 272.1578979492188 -0.592033863067627 271.9434204101563 -0.6354338526725769 271.697265625 C -0.6788038611412048 271.4512329101563 -0.6238038539886475 271.2030334472656 -0.4805638492107391 270.9983825683594 L 5.5175461769104 262.4321899414063 L 5.890366077423096 261.8997192382813 L 6.422816276550293 262.2725524902344 L 11.30375576019287 265.6902160644531 L 11.83620643615723 266.0630187988281 L 11.46338653564453 266.5954895019531 L 5.465366363525391 275.1615905761719 C 5.29054594039917 275.4113464355469 5.003976345062256 275.5604858398438 4.698846340179443 275.5604858398438 Z"/><path class="f" d="M 6.049996376037598 262.8049926757813 L 0.05196571350097656 271.37109375 C -0.03842353820800781 271.500244140625 -0.007063865661621094 271.6782531738281 0.1220760345458984 271.7686157226563 L 4.535386085510254 274.85888671875 C 4.585212707519531 274.8937377929688 4.642311096191406 274.9104919433594 4.698850154876709 274.9104919433594 C 4.788836479187012 274.9104919433594 4.877398490905762 274.8680725097656 4.932916164398193 274.7887573242188 L 10.93093585968018 266.22265625 L 6.049996376037598 262.8049926757813 M 5.730746269226074 260.9944458007813 L 6.795646190643311 261.7400817871094 L 11.67658615112305 265.1577453613281 L 12.74148654937744 265.9034118652344 L 11.99583625793457 266.9682922363281 L 5.99781608581543 275.5343933105469 C 5.701536178588867 275.9576721191406 5.215896129608154 276.2105102539063 4.698846340179443 276.2105102539063 C 4.372146129608154 276.2105102539063 4.057886123657227 276.1114196777344 3.790046215057373 275.9240112304688 L -0.6235837936401367 272.83349609375 C -0.9703235626220703 272.5908813476563 -1.201993942260742 272.2273559570313 -1.275553703308105 271.8101196289063 C -1.349063873291016 271.3931884765625 -1.255853652954102 270.9725341796875 -1.013093948364258 270.6256713867188 L 4.985095977783203 262.0593566894531 L 5.730746269226074 260.9944458007813 Z"/></g><g class="b" transform="translate(-41.658 682.552)"><path class="e" d="M 100.138557434082 169.7017211914063 L 99.60610961914063 169.3289031982422 L 94.72518157958984 165.9112243652344 L 94.19274139404297 165.5383911132813 L 94.56555938720703 165.0059509277344 L 98.86906433105469 158.8598937988281 C 98.97479248046875 158.7087707519531 99.1307373046875 158.5971221923828 99.30805206298828 158.5456848144531 L 100.6943588256836 158.1424102783203 C 100.7683486938477 158.1208953857422 100.8447570800781 158.1099853515625 100.9215240478516 158.1099853515625 C 101.3477783203125 158.1099853515625 101.7037582397461 158.4433135986328 101.7319488525391 158.8688201904297 L 101.8666610717773 160.9058227539063 L 103.8267211914063 160.3356781005859 C 103.9005889892578 160.3141632080078 103.9770736694336 160.3032531738281 104.0538940429688 160.3032531738281 C 104.4801025390625 160.3032531738281 104.836067199707 160.6365356445313 104.8642883300781 161.06201171875 L 104.9597320556641 162.5040130615234 C 104.972038269043 162.6880035400391 104.9203720092773 162.8729248046875 104.8141937255859 163.0242156982422 L 100.5113906860352 169.1692657470703 L 100.138557434082 169.7017211914063 Z"/><path class="f" d="M 100.921516418457 158.7599945068359 C 100.9065170288086 158.7599945068359 100.8912124633789 158.7620849609375 100.8759231567383 158.7665405273438 L 99.48917388916016 159.1699371337891 C 99.45367431640625 159.1802368164063 99.42269134521484 159.2024383544922 99.40151214599609 159.2327117919922 L 95.09800720214844 165.3787689208984 L 99.97894287109375 168.7964477539063 L 104.2821426391602 162.6508331298828 C 104.3033905029297 162.6205444335938 104.3136215209961 162.5838470458984 104.311149597168 162.5469360351563 L 104.2157211303711 161.1050415039063 C 104.2099075317383 161.0173645019531 104.1366958618164 160.9532623291016 104.0538940429688 160.9532470703125 C 104.0388793945313 160.9532470703125 104.023567199707 160.9553527832031 104.0082702636719 160.9598083496094 L 101.4654388427734 161.699462890625 C 101.4501647949219 161.7039031982422 101.4348526000977 161.7060089111328 101.4198608398438 161.7060089111328 C 101.3371353149414 161.7060089111328 101.2639389038086 161.6419525146484 101.2581176757813 161.5542297363281 L 101.0833740234375 158.9117736816406 C 101.0775604248047 158.8240966796875 101.0043334960938 158.7599945068359 100.921516418457 158.7599945068359 M 100.9215240478516 157.4599914550781 C 101.6889038085938 157.4599914550781 102.3297729492188 158.0599365234375 102.3805313110352 158.8258209228516 L 102.4618682861328 160.0557403564453 L 103.6451797485352 159.7115478515625 C 103.778190612793 159.6728515625 103.9156875610352 159.6532440185547 104.0538940429688 159.6532440185547 C 104.8212432861328 159.6533355712891 105.462028503418 160.2532196044922 105.5128631591797 161.0189208984375 L 105.6083068847656 162.4610900878906 C 105.6304702758789 162.7922515869141 105.5374298095703 163.1251831054688 105.3462524414063 163.3975982666016 L 101.0438385009766 169.5420989990234 L 100.2981872558594 170.6069946289063 L 99.23329162597656 169.8613433837891 L 94.35236358642578 166.4436645507813 L 93.28746795654297 165.6980133056641 L 94.03311157226563 164.6331176757813 L 98.33660888671875 158.487060546875 C 98.52693176269531 158.2150573730469 98.80770111083984 158.0140533447266 99.12693023681641 157.9214324951172 L 100.512809753418 157.5182800292969 C 100.6456527709961 157.4796142578125 100.7832183837891 157.4599914550781 100.9215240478516 157.4599914550781 Z"/></g><g class="c" transform="translate(-348.39 477.402)"><path class="e" d="M 422.8299865722656 382.1507568359375 C 422.4268493652344 382.1507568359375 422.0482482910156 381.9537048339844 421.8172302246094 381.6236267089844 L 421.0525512695313 380.5315551757813 L 420.6797180175781 379.9991149902344 L 421.212158203125 379.6262817382813 L 426.0931701660156 376.2085571289063 L 426.6256103515625 375.8357238769531 L 426.9984436035156 376.3681640625 L 427.7632141113281 377.4603576660156 C 428.1540222167969 378.0184631347656 428.0179138183594 378.7904968261719 427.4598083496094 379.1813659667969 L 423.5382385253906 381.9271850585938 C 423.3294677734375 382.0734252929688 423.0845336914063 382.1507568359375 422.8299865722656 382.1507568359375 Z"/><path class="f" d="M 422.8299865722656 381.5007629394531 C 422.9459838867188 381.5007629394531 423.0632019042969 381.4663391113281 423.1654357910156 381.3947448730469 L 427.0869445800781 378.64892578125 C 427.3518981933594 378.46337890625 427.4163208007813 378.0981750488281 427.2307739257813 377.8331909179688 L 426.4660034179688 376.7409973144531 L 421.5849914550781 380.1587219238281 L 422.3497619628906 381.2509155273438 C 422.4636840820313 381.4136657714844 422.6453552246094 381.5007629394531 422.8299865722656 381.5007629394531 M 422.8299865722656 382.8007507324219 C 422.2149353027344 382.8007507324219 421.6372680664063 382.5000305175781 421.2847290039063 381.9963684082031 L 420.5201110839844 380.9043884277344 L 419.7744445800781 379.8394775390625 L 420.83935546875 379.0938110351563 L 425.7203369140625 375.6760864257813 L 426.7852478027344 374.9304504394531 L 427.5309143066406 375.9953308105469 L 428.2956848144531 377.0875549316406 C 428.8920288085938 377.939208984375 428.684326171875 379.1173400878906 427.8326416015625 379.7137756347656 L 423.9110717773438 382.4596557617188 C 423.5925598144531 382.6827697753906 423.2186584472656 382.8007507324219 422.8299865722656 382.8007507324219 Z"/></g><g class="b" transform="translate(-209.233 676.305)"><path class="e" d="M 282.2688293457031 182.1601409912109 L 281.8960266113281 181.6277008056641 L 272.4550170898438 168.1445159912109 C 272.3002624511719 167.9235229492188 272.2814636230469 167.6377410888672 272.4059143066406 167.3986968994141 C 272.5306396484375 167.1590881347656 272.7753601074219 167.01025390625 273.0446166992188 167.01025390625 C 273.1128845214844 167.01025390625 273.1808776855469 167.0199584960938 273.2467041015625 167.0391082763672 L 273.9135131835938 167.2330017089844 L 274.0556640625 165.0821838378906 C 274.0806884765625 164.7046356201172 274.3965454101563 164.4089660644531 274.7747802734375 164.4089660644531 C 274.8427429199219 164.4089660644531 274.9103393554688 164.4185943603516 274.9757080078125 164.4375457763672 L 277.0458679199219 165.0396728515625 L 277.0915832519531 164.3476257324219 C 277.1163024902344 163.9702758789063 277.4324645996094 163.6743469238281 277.8113708496094 163.6743469238281 C 278.0458679199219 163.6743469238281 278.266357421875 163.7892761230469 278.401123046875 163.9817810058594 L 287.8418273925781 177.4645233154297 L 288.2146606445313 177.9969635009766 L 287.6822204589844 178.3697967529297 L 282.80126953125 181.7873382568359 L 282.2688293457031 182.1601409912109 Z"/><path class="f" d="M 282.428466796875 181.2548828125 L 287.3093872070313 177.8373413085938 L 277.8686828613281 164.3545989990234 C 277.8540954589844 164.3337707519531 277.8326110839844 164.3243408203125 277.8113708496094 164.3243408203125 C 277.7767944335938 164.3243408203125 277.7428588867188 164.3492431640625 277.7401733398438 164.3904876708984 L 277.6469116210938 165.8019104003906 C 277.6443786621094 165.840087890625 277.6124877929688 165.8680267333984 277.5764465332031 165.8680267333984 C 277.5699157714844 165.8680267333984 277.563232421875 165.8670959472656 277.5565795898438 165.8651580810547 L 274.7945861816406 165.0618133544922 C 274.7879333496094 165.0598907470703 274.7812805175781 165.0589752197266 274.7747802734375 165.0589752197266 C 274.7387084960938 165.0589752197266 274.706787109375 165.0868377685547 274.7042541503906 165.1250457763672 L 274.5145568847656 167.9951782226563 C 274.5120239257813 168.0333557128906 274.4801330566406 168.0612640380859 274.4440612792969 168.0612640380859 C 274.4375305175781 168.0612640380859 274.4308471679688 168.0603485107422 274.4241943359375 168.0584106445313 L 273.0651550292969 167.6632385253906 C 273.0581359863281 167.6611938476563 273.0512390136719 167.6602478027344 273.0446166992188 167.6602478027344 C 272.9907531738281 167.6602478027344 272.953369140625 167.7229919433594 272.9874572753906 167.7716979980469 L 282.428466796875 181.2548828125 M 282.1091918945313 183.0654144287109 L 281.3635559082031 182.0005340576172 L 271.9225769042969 168.5173492431641 C 271.6282653808594 168.0969543457031 271.5925903320313 167.5533142089844 271.8293762207031 167.0984954833984 C 272.0664672851563 166.6431274414063 272.5321044921875 166.3602447509766 273.0446166992188 166.3602447509766 C 273.136474609375 166.3602447509766 273.22802734375 166.3694915771484 273.3179626464844 166.3877716064453 L 273.4070739746094 165.039306640625 C 273.4546508789063 164.3212890625 274.0553894042969 163.7589721679688 274.7747802734375 163.7589721679688 C 274.9042663574219 163.7589721679688 275.0329895019531 163.7773132324219 275.1574096679688 163.8134765625 L 276.4552307128906 164.1909484863281 C 276.5546569824219 163.5285186767578 277.1296081542969 163.0243530273438 277.8113708496094 163.0243530273438 C 278.2578430175781 163.0243530273438 278.6773986816406 163.2429656982422 278.9337158203125 163.609130859375 L 288.3742980957031 177.0916900634766 L 289.1199645996094 178.1566162109375 L 288.0550231933594 178.9022521972656 L 283.1741027832031 182.3197937011719 L 282.1091918945313 183.0654144287109 Z"/></g><g transform="translate(62.553 835)"><path class="d" d="M247.859,62.151a.493.493,0,0,1-.493-.493V59.4a.493.493,0,1,1,.986,0v2.263A.493.493,0,0,1,247.859,62.151Z" transform="translate(-247.366 -58.902)"/></g><g transform="translate(58.013 836.98)"><path class="d" d="M173.01,92.615a.492.492,0,0,1-.349-.144l-1.6-1.6a.493.493,0,1,1,.7-.7l1.6,1.6a.493.493,0,0,1-.349.842Z" transform="translate(-170.917 -90.029)"/></g><g transform="translate(65.473 837.039)"><path class="d" d="M298.77,93.538a.493.493,0,0,1-.349-.842l1.6-1.6a.493.493,0,0,1,.7.7l-1.6,1.6A.492.492,0,0,1,298.77,93.538Z" transform="translate(-298.277 -90.951)"/></g></g></svg>