<svg xmlns="http://www.w3.org/2000/svg" width="23.357" height="24" viewBox="0 0 23.357 24"><defs><style>.a{fill:#ff6464;fill-rule:evenodd;}.b{fill:#75c7fe;}.c{fill:#284055;}</style></defs><g transform="translate(-905.4 -919)"><g transform="translate(905.4 923.161)"><path class="a" d="M2.593,52.26a.463.463,0,1,0,.655.655l1.343-1.343a.461.461,0,0,0,0-.656L3.248,49.572a.464.464,0,0,0-.655.656l.553.552H.464a.464.464,0,1,0,0,.927H3.145Zm0,0" transform="translate(0 -49.437)"/><path class="a" d="M405.041,50.78h-2.682l.552-.552a.464.464,0,0,0-.655-.656l-1.344,1.344a.47.47,0,0,0-.109.489.5.5,0,0,0,.109.167l1.344,1.344a.463.463,0,0,0,.655-.655l-.553-.553h2.682a.464.464,0,0,0,0-.927Zm0,0" transform="translate(-382.148 -49.437)"/></g><g transform="translate(908.159 919)"><path class="b" d="M16624.951,1289.371l3.25,1.138h3.6l5.094-1.138h1.406l.527,3.064-3.338.788-2.811,1.663-1.492,1.138-2.986-2.014-2.549-1.576h-2.283Z" transform="translate(-16622.318 -1278.33)"/><g transform="translate(0 0)"><path class="c" d="M81.608,15.808a12.741,12.741,0,0,0-1.828-5.614,11.015,11.015,0,0,1-.364-9.24A.7.7,0,0,0,78.1.45a12.592,12.592,0,0,0,.159,9.866c-3.181,1.453-8.573,1.447-11.361.054A12.577,12.577,0,0,0,67.087.45a.7.7,0,0,0-1.314.5,11.005,11.005,0,0,1-.364,9.24,12.609,12.609,0,0,0-1.828,5.614,13.439,13.439,0,0,0,2.037,7.868.7.7,0,0,0,1.184-.76,11.821,11.821,0,0,1-1.666-8.17c3.406.526,6.1,3.457,6.746,4.213v4.323a.7.7,0,0,0,1.407,0V18.96c.645-.758,3.341-3.7,6.763-4.216a11.822,11.822,0,0,1-1.665,8.173.7.7,0,0,0,1.184.76A13.439,13.439,0,0,0,81.608,15.808ZM72.586,17.63a13.44,13.44,0,0,0-7.1-4.251,11.752,11.752,0,0,1,.747-1.773c3.339,1.693,9.3,1.545,12.7-.052a11.779,11.779,0,0,1,.772,1.822A13.437,13.437,0,0,0,72.586,17.63Z" transform="translate(-63.569 0.001)"/><ellipse class="c" cx="0.702" cy="0.701" rx="0.702" ry="0.701" transform="translate(8.316 7.079)"/></g></g></g></svg>